<?xml version="1.0" encoding="UTF-8"?>
<svg version="1.1" xmlns="http://www.w3.org/2000/svg" width="530" height="471">
<path d="M0 0 C6.79328568 -0.06159455 13.5863846 -0.1124938 20.37991333 -0.13656616 C22.24575353 -0.14398713 24.11158418 -0.15459155 25.97738647 -0.16860962 C49.24810079 -0.33079256 70.03000953 5.41994722 87.01593018 22.1685791 C100.89127047 36.94883289 102.69176609 53.84459526 102.13311768 73.2779541 C101.38204215 88.44503827 97.34155454 102.0668527 87.71124268 114.03967285 C87.05124268 114.03967285 86.39124268 114.03967285 85.71124268 114.03967285 C85.4663208 114.6223291 85.22139893 115.20498535 84.96905518 115.80529785 C79.07806203 126.27004344 62.78825079 132.82265516 51.66680908 135.96643066 C39.32305746 139.19029189 26.56919824 139.08443043 13.88702393 139.18029785 C12.32236893 139.19480736 12.32236893 139.19480736 10.72610474 139.20960999 C1.98035344 139.28953025 1.98035344 139.28953025 -2.25189209 139.29016113 C-14.62570652 139.30314423 -25.07239539 139.32261127 -36.28875732 145.03967285 C-37.94953224 145.72088419 -39.61453363 146.39221842 -41.28875732 147.03967285 C-41.27304688 148.2199707 -41.25733643 149.40026855 -41.2411499 150.61633301 C-41.18669838 155.01079437 -41.15235194 159.40522611 -41.1239624 163.79992676 C-41.10891042 165.69906638 -41.08846416 167.59817144 -41.06243896 169.49719238 C-41.02589741 172.23279366 -41.00899494 174.96793385 -40.99578857 177.70373535 C-40.97256279 178.96971054 -40.97256279 178.96971054 -40.9488678 180.26126099 C-40.9472188 186.08589639 -41.79525416 190.50193903 -46.05047607 194.8326416 C-55.78362338 201.88078275 -64.814179 203.21204769 -76.66375732 203.10217285 C-77.59059326 203.09766113 -78.5174292 203.09314941 -79.47235107 203.08850098 C-81.74455441 203.07678859 -84.0166212 203.06038657 -86.28875732 203.03967285 C-86.38182271 193.45093075 -86.45270637 183.86234638 -86.49600601 174.27324963 C-86.51679756 169.81965766 -86.54495907 165.36637683 -86.59051514 160.91296387 C-86.63427638 156.60760289 -86.65795769 152.30253942 -86.6682663 147.99697304 C-86.67560376 146.36206701 -86.68993081 144.72717554 -86.71167755 143.09239769 C-86.8652661 131.05771642 -85.78008454 120.91196032 -78.28875732 110.97717285 C-77.62875732 110.07869629 -76.96875732 109.18021973 -76.28875732 108.2545166 C-74.35694924 106.11519007 -72.9414427 105.08772042 -70.28875732 104.03967285 C-70.28875732 103.37967285 -70.28875732 102.71967285 -70.28875732 102.03967285 C-48.64260291 88.7822257 -26.87560558 84.86024774 -1.78485107 84.9420166 C-0.09377586 84.94388458 1.5972999 84.94530669 3.28837585 84.94630432 C7.71224494 84.95009957 12.13608055 84.95990389 16.55993652 84.9710083 C21.08497668 84.98128716 25.61002231 84.98581574 30.1350708 84.99084473 C38.99380937 85.00152919 47.85252322 85.01856915 56.71124268 85.03967285 C57.74323585 80.06119066 57.9674422 75.36422229 58.02374268 70.28967285 C58.05274658 69.43373535 58.08175049 68.57779785 58.1116333 67.69592285 C58.19687459 59.04065327 55.1161897 51.79585663 49.71124268 45.03967285 C40.26727731 36.08921637 29.30677496 34.44282145 16.73077393 34.43029785 C15.4367717 34.4137616 14.14276947 34.39722534 12.80955505 34.38018799 C9.40828466 34.33693731 6.00726998 34.316611 2.60577393 34.30145264 C-0.88070382 34.28172673 -4.36691805 34.2399862 -7.85321045 34.1998291 C-14.66522579 34.12294862 -21.47609593 34.08218556 -28.28875732 34.03967285 C-28.28875732 46.24967285 -28.28875732 58.45967285 -28.28875732 71.03967285 C-45.06270984 71.52237652 -59.1150009 70.49438983 -72.47235107 59.1920166 C-88.4368027 44.01220721 -92.21748521 23.18320143 -93.28875732 2.03967285 C-88.38372723 1.24986205 -83.67787934 0.89379985 -78.69671631 0.83435059 C-77.96895241 0.82445949 -77.24118851 0.81456839 -76.49137115 0.80437756 C-74.08923001 0.77291315 -71.6870701 0.74801107 -69.28485107 0.7232666 C-67.58014004 0.70248012 -65.87543324 0.68134446 -64.17073059 0.65988159 C-59.62624626 0.60408979 -55.08171633 0.55447603 -50.53713989 0.50683975 C-47.72826006 0.47719399 -44.91939676 0.44628654 -42.11053467 0.41500854 C-30.29475809 0.28401742 -18.47889397 0.16668207 -6.66286469 0.06098938 C-4.44190602 0.04104794 -2.22095273 0.02059048 0 0 Z " fill="#5754FC" transform="translate(264.28875732421875,100.9603271484375)"/>
<path d="M0 0 C0.89230848 2.45523388 1.13873163 3.62659796 0.21484375 6.11328125 C-6.80245837 18.1950583 -14.18840722 23.7857263 -27.51757812 28.14624023 C-33.83656021 29.69541861 -40.2140061 29.6447219 -46.6875 29.6875 C-64.34335899 29.79565169 -64.34335899 29.79565169 -81 35 C-81.71414062 35.29132813 -82.42828125 35.58265625 -83.1640625 35.8828125 C-90.39018669 39.42612436 -93.43586041 46.76238275 -96 54 C-96.47600769 57.44355113 -96.49885289 60.56345786 -96 64 C-96.66 64 -97.32 64 -98 64 C-97.98428955 65.18029785 -97.9685791 66.3605957 -97.95239258 67.57666016 C-97.89794106 71.97112152 -97.86359462 76.36555326 -97.83520508 80.76025391 C-97.82015309 82.65939353 -97.79970684 84.55849859 -97.77368164 86.45751953 C-97.73714008 89.19312081 -97.72023762 91.928261 -97.70703125 94.6640625 C-97.69154739 95.50804596 -97.67606354 96.35202942 -97.66011047 97.22158813 C-97.65846147 103.04622354 -98.50649684 107.46226618 -102.76171875 111.79296875 C-112.49486606 118.8411099 -121.52542168 120.17237483 -133.375 120.0625 C-134.30183594 120.05798828 -135.22867188 120.05347656 -136.18359375 120.04882812 C-138.45579709 120.03711574 -140.72786388 120.02071372 -143 120 C-143.09306539 110.4112579 -143.16394904 100.82267353 -143.20724869 91.23357677 C-143.22804024 86.77998481 -143.25620175 82.32670398 -143.30175781 77.87329102 C-143.34551906 73.56793004 -143.36920037 69.26286657 -143.37950897 64.95730019 C-143.38684644 63.32239416 -143.40117348 61.68750269 -143.42292023 60.05272484 C-143.57650878 48.01804357 -142.49132722 37.87228746 -135 27.9375 C-134.34 27.03902344 -133.68 26.14054687 -133 25.21484375 C-131.06819191 23.07551722 -129.65268538 22.04804757 -127 21 C-127 20.34 -127 19.68 -127 19 C-105.35384559 5.74255284 -83.58684825 1.82057489 -58.49609375 1.90234375 C-56.80501853 1.90421173 -55.11394277 1.90563384 -53.42286682 1.90663147 C-48.99899773 1.91042672 -44.57516213 1.92023104 -40.15130615 1.93133545 C-35.626266 1.94161431 -31.10122037 1.94614289 -26.57617188 1.95117188 C-17.71743331 1.96185634 -8.85871945 1.9788963 0 2 C0 1.34 0 0.68 0 0 Z " fill="#06EEFC" transform="translate(321,184)"/>
<path d="M0 0 C8.73324948 5.58020616 13.6834519 12.98437603 18.03125 22.2421875 C19.90008543 25.63321953 22.54772409 28.27386204 26 30 C28.84208026 30.15706331 31.66337307 30.2584957 34.5078125 30.31640625 C35.34843231 30.33718735 36.18905212 30.35796844 37.05514526 30.37937927 C39.74501235 30.44485439 42.43497843 30.5037502 45.125 30.5625 C46.94662489 30.60568716 48.76823971 30.64930152 50.58984375 30.69335938 C55.05979577 30.80133907 59.52982108 30.90042729 64 31 C64 43.21 64 55.42 64 68 C47.22604748 68.48270367 33.17375642 67.45471697 19.81640625 56.15234375 C7.59787642 44.53434658 0.38734696 27.15596299 -0.109375 10.28515625 C-0.12308778 6.8535319 -0.0889712 3.430334 0 0 Z " fill="#0AE7FC" transform="translate(172,104)"/>
<path d="M0 0 C2.31 0 4.62 0 7 0 C7.29769287 0.60062256 7.59538574 1.20124512 7.90209961 1.82006836 C9.24516208 4.52691229 10.59128848 7.23222092 11.9375 9.9375 C12.40607422 10.88302734 12.87464844 11.82855469 13.35742188 12.80273438 C13.80537109 13.70185547 14.25332031 14.60097656 14.71484375 15.52734375 C15.12855225 16.35999756 15.54226074 17.19265137 15.96850586 18.05053711 C16.85030942 19.94841137 16.85030942 19.94841137 18 21 C18.29769287 20.39937744 18.59538574 19.79875488 18.90209961 19.17993164 C20.24516208 16.47308771 21.59128848 13.76777908 22.9375 11.0625 C23.40607422 10.11697266 23.87464844 9.17144531 24.35742188 8.19726562 C25.0293457 6.84858398 25.0293457 6.84858398 25.71484375 5.47265625 C26.33540649 4.22367554 26.33540649 4.22367554 26.96850586 2.94946289 C28 1 28 1 29 0 C31.31 0 33.62 0 36 0 C36 11.22 36 22.44 36 34 C33.69 34 31.38 34 29 34 C28.67 28.39 28.34 22.78 28 17 C25.36 22.61 22.72 28.22 20 34 C18.35 33.67 16.7 33.34 15 33 C13.47295132 30.61047895 12.32181167 28.49909126 11.1875 25.9375 C10.87619141 25.27427734 10.56488281 24.61105469 10.24414062 23.92773438 C9.4795902 22.2927727 8.7375695 20.6473094 8 19 C7.67 23.95 7.34 28.9 7 34 C4.69 34 2.38 34 0 34 C0 22.78 0 11.56 0 0 Z " fill="#9948EE" transform="translate(233,331)"/>
<path d="M0 0 C2.64 0 5.28 0 8 0 C11.3 6.93 14.6 13.86 18 21 C21.07559503 15.67211966 21.07559503 15.67211966 23.921875 10.25390625 C24.37626953 9.3402832 24.37626953 9.3402832 24.83984375 8.40820312 C25.14019531 7.79912109 25.44054687 7.19003906 25.75 6.5625 C26.06582031 5.92634766 26.38164062 5.29019531 26.70703125 4.63476562 C27.47322437 3.09077041 28.23688633 1.54551954 29 0 C31.31 0 33.62 0 36 0 C36 11.22 36 22.44 36 34 C34.02 34 32.04 34 30 34 C29.67 28.39 29.34 22.78 29 17 C26.03 22.61 23.06 28.22 20 34 C18.68 34 17.36 34 16 34 C13.36 28.72 10.72 23.44 8 18 C7.67 23.28 7.34 28.56 7 34 C4.69 34 2.38 34 0 34 C0 22.78 0 11.56 0 0 Z " fill="#8620F1" transform="translate(276,331)"/>
<path d="M0 0 C3.58567694 2.72511447 5.83023874 5.07700551 7.125 9.375 C7.85935558 15.01515369 7.93101596 19.7032632 5.4375 24.875 C4.674375 25.7 3.91125 26.525 3.125 27.375 C2.444375 28.1175 1.76375 28.86 1.0625 29.625 C-4.91452894 33.1857832 -11.42820475 34.09158736 -18.1875 32.4375 C-23.12851397 30.68296797 -26.14474089 27.80789303 -28.875 23.375 C-30.48871538 18.53385385 -30.85189633 13.18888617 -29.15625 8.3046875 C-26.38813719 3.14796122 -23.03080448 0.2626842 -17.6875 -1.9375 C-11.56821517 -3.04097759 -5.64896429 -2.81235991 0 0 Z M-19.875 7.375 C-22.20617811 10.79406123 -22.875 12.78543888 -22.875 16.9375 C-21.68883817 21.01493129 -20.11215865 22.69052698 -16.875 25.375 C-13.76546621 26.9297669 -11.31233239 26.66144437 -7.875 26.375 C-4.79306022 24.7468054 -2.61079333 23.34490938 -0.5 20.5625 C0.44207395 17.26524117 0.53760656 14.7937401 0.125 11.375 C-1.89212132 7.89934481 -3.98860536 5.67046488 -7.875 4.375 C-12.84236392 4.00704712 -15.98147112 4.1303926 -19.875 7.375 Z " fill="#8118F1" transform="translate(218.875,332.625)"/>
<path d="M0 0 C3.01125 -0.061875 6.0225 -0.12375 9.125 -0.1875 C10.06230957 -0.21481201 10.99961914 -0.24212402 11.96533203 -0.27026367 C17.05682897 -0.32069064 20.63185792 0.08110132 25 3 C27.82317327 7.23475991 27.79429252 11.02603229 27 16 C25.58174937 18.51529467 24.12285307 19.98328959 22 22 C22.3609375 22.69867188 22.721875 23.39734375 23.09375 24.1171875 C23.5578125 25.02726562 24.021875 25.93734375 24.5 26.875 C24.9640625 27.77992188 25.428125 28.68484375 25.90625 29.6171875 C27 32 27 32 27 34 C23.8125 34.5 23.8125 34.5 20 34 C16.77349907 30.56929015 14.96850364 26.5746342 14 22 C11.69 22 9.38 22 7 22 C7 25.96 7 29.92 7 34 C4.69 34 2.38 34 0 34 C0 22.78 0 11.56 0 0 Z M7 6 C7 9.3 7 12.6 7 16 C13.06755731 16.48145231 13.06755731 16.48145231 18.5625 14.5 C19.036875 14.005 19.51125 13.51 20 13 C19.65772428 10.02934491 19.65772428 10.02934491 19 7 C16.47524538 5.73762269 14.68799534 5.90143596 11.875 5.9375 C10.26625 5.958125 8.6575 5.97875 7 6 Z " fill="#7C10F0" transform="translate(157,331)"/>
<path d="M0 0 C11.482921 3.33375126 21.67048108 12.60868702 28.1875 22.5 C38.2685861 40.89452971 39.12554344 63.51287231 33.7734375 83.65356445 C31.29036409 91.96484484 27.42554866 99.25472329 22 106 C21.34 106 20.68 106 20 106 C19.75507813 106.58265625 19.51015625 107.1653125 19.2578125 107.765625 C13.35276758 118.25533213 -2.93279074 124.76520437 -14.06787109 127.92578125 C-22.31638726 130.04192444 -30.49978627 130.75574098 -39 131 C-39.66 130.01 -40.32 129.02 -41 128 C-35.25817986 127.32872249 -29.69168268 126.89783654 -23.91015625 127.16015625 C-21.6669964 127.12700549 -21.6669964 127.12700549 -19 125 C-17.03289833 124.60159966 -15.05057889 124.27523466 -13.0625 124 C-7.76055627 123.28120456 -7.76055627 123.28120456 -3 121 C-1.23272142 117.9665533 -1.23272142 117.9665533 0 115 C0.66 115 1.32 115 2 115 C2 115.66 2 116.32 2 117 C4.475 116.505 4.475 116.505 7 116 C6.67 115.01 6.34 114.02 6 113 C7.98 112.505 7.98 112.505 10 112 C10 110.68 10 109.36 10 108 C12.97 107.505 12.97 107.505 16 107 C16 105.35 16 103.7 16 102 C16.66 102 17.32 102 18 102 C18.33 101.34 18.66 100.68 19 100 C19.66 100 20.32 100 21 100 C21.73080266 98.02253397 22.39421747 96.01927511 23 94 C22.67 93.34 22.34 92.68 22 92 C23.8125 90.9375 23.8125 90.9375 26 90 C27.485 90.495 27.485 90.495 29 91 C29.33 85.72 29.66 80.44 30 75 C31.485 75.495 31.485 75.495 33 76 C32.979375 74.700625 32.95875 73.40125 32.9375 72.0625 C32.91600546 70.70834367 32.92851801 69.35243917 33 68 C33.33 67.67 33.66 67.34 34 67 C34.23678716 64.30764224 34.42198025 61.63501844 34.5625 58.9375 C34.62727539 57.79958008 34.62727539 57.79958008 34.69335938 56.63867188 C34.79973633 54.75934562 34.90039934 52.87969756 35 51 C33.35 50.67 31.7 50.34 30 50 C30 48.68 30 47.36 30 46 C30.66 46 31.32 46 32 46 C31.44114977 38.85410664 31.44114977 38.85410664 28 33 C27.28072705 30.68234271 26.6090107 28.34904126 26 26 C25.34 26.33 24.68 26.66 24 27 C23.71125 25.88625 23.4225 24.7725 23.125 23.625 C22.30758671 19.99708908 22.30758671 19.99708908 20 18 C19.505 18.495 19.505 18.495 19 19 C17.33382885 19.04063832 15.66611905 19.042721 14 19 C14 16.69 14 14.38 14 12 C13.01 11.67 12.02 11.34 11 11 C11 10.34 11 9.68 11 9 C9.68 9.33 8.36 9.66 7 10 C7 9.01 7 8.02 7 7 C6.34 6.67 5.68 6.34 5 6 C5 5.34 5 4.68 5 4 C4.360625 3.896875 3.72125 3.79375 3.0625 3.6875 C2.0415625 3.3471875 2.0415625 3.3471875 1 3 C0.505 1.515 0.505 1.515 0 0 Z " fill="#41A4F0" transform="translate(330,109)"/>
<path d="M0 0 C2.31 0 4.62 0 7 0 C7 4.62 7 9.24 7 14 C12.28 14 17.56 14 23 14 C23 9.38 23 4.76 23 0 C25.31 0 27.62 0 30 0 C30 11.22 30 22.44 30 34 C27.69 34 25.38 34 23 34 C23 29.38 23 24.76 23 20 C17.72 20 12.44 20 7 20 C7 24.62 7 29.24 7 34 C4.69 34 2.38 34 0 34 C0 22.78 0 11.56 0 0 Z " fill="#7E0DF6" transform="translate(418,331)"/>
<path d="M0 0 C2.31 0 4.62 0 7 0 C7 4.62 7 9.24 7 14 C12.28 14 17.56 14 23 14 C23 9.38 23 4.76 23 0 C25.31 0 27.62 0 30 0 C30 11.22 30 22.44 30 34 C27.69 34 25.38 34 23 34 C23 29.38 23 24.76 23 20 C17.72 20 12.44 20 7 20 C7 24.62 7 29.24 7 34 C4.69 34 2.38 34 0 34 C0 22.78 0 11.56 0 0 Z " fill="#832BE6" transform="translate(120,331)"/>
<path d="M0 0 C2.31 0 4.62 0 7 0 C10.9500672 7.36148888 14.27075125 14.87548456 17.375 22.625 C17.73271484 23.51413086 18.09042969 24.40326172 18.45898438 25.31933594 C21 31.74122046 21 31.74122046 21 34 C18.69 34 16.38 34 14 34 C11 28.25 11 28.25 11 26 C6.38 26.33 1.76 26.66 -3 27 C-3.99 29.31 -4.98 31.62 -6 34 C-8.31 34 -10.62 34 -13 34 C-12.40814069 29.36939087 -11.13954237 25.56231829 -9.27734375 21.2890625 C-9.01240616 20.67606293 -8.74746857 20.06306335 -8.47450256 19.43148804 C-7.63508371 17.49320624 -6.78647548 15.55911217 -5.9375 13.625 C-5.36331787 12.30365224 -4.78974401 10.98203998 -4.21679688 9.66015625 C-2.81821738 6.43701614 -1.41137291 3.21756208 0 0 Z M3 9 C1.68 12.63 0.36 16.26 -1 20 C1.97 20 4.94 20 8 20 C7.54917531 18.53932801 7.08906463 17.08151968 6.625 15.625 C6.36976563 14.81289063 6.11453125 14.00078125 5.8515625 13.1640625 C5.10145717 10.83540815 5.10145717 10.83540815 3 9 Z " fill="#820CFA" transform="translate(331,331)"/>
<path d="M0 0 C3.01125 -0.061875 6.0225 -0.12375 9.125 -0.1875 C10.06230957 -0.21481201 10.99961914 -0.24212402 11.96533203 -0.27026367 C17.05682897 -0.32069064 20.63185792 0.08110132 25 3 C27.96054793 7.44082189 27.64828619 11.79027847 27 17 C24.81381363 20.16620095 23.63108389 20.7896387 20 22 C17.77181559 22.06937062 15.54165476 22.08457084 13.3125 22.0625 C11.54326172 22.04896484 11.54326172 22.04896484 9.73828125 22.03515625 C8.38283203 22.01775391 8.38283203 22.01775391 7 22 C7 25.96 7 29.92 7 34 C4.69 34 2.38 34 0 34 C0 22.78 0 11.56 0 0 Z M7 6 C7 9.3 7 12.6 7 16 C8.79133978 16.05391993 10.58313899 16.09275571 12.375 16.125 C13.37273437 16.14820313 14.37046875 16.17140625 15.3984375 16.1953125 C18.16262173 16.27216848 18.16262173 16.27216848 20 14 C20.41666667 11 20.41666667 11 20 8 C16.68629 5.79086 15.6553979 5.77518447 11.8125 5.875 C10.224375 5.91625 8.63625 5.9575 7 6 Z " fill="#842EE1" transform="translate(87,331)"/>
<path d="M0 0 C0 2.31 0 4.62 0 7 C-0.78375 6.67 -1.5675 6.34 -2.375 6 C-8.01798289 4.44331506 -13.49037117 4.00660525 -19 6.1875 C-21.45584988 8.41311395 -22.26381333 9.76077863 -23 13 C-22.85882411 17.02351275 -22.62920466 19.22871687 -20.0625 22.375 C-15.91507152 25.64267092 -12.12676821 25.50098712 -7 25 C-4.47755089 24.21116137 -2.36664357 23.20849884 0 22 C0 24.64 0 27.28 0 30 C-6.06138898 33.36282539 -12.57743117 33.64294368 -19.25 32 C-24.2599801 30.29581779 -27.24485169 27.47330353 -30 23 C-31.79973286 17.60080143 -31.70112627 12.06442735 -29.875 6.6875 C-26.85274035 2.35559449 -23.66571556 -0.28145603 -18.8125 -2.375 C-12.38915182 -3.4280079 -5.75441158 -3.28823519 0 0 Z " fill="#7B17E9" transform="translate(411,333)"/>
<path d="M0 0 C0.89230848 2.45523388 1.13873163 3.62659796 0.21484375 6.11328125 C-6.80245837 18.1950583 -14.18840722 23.7857263 -27.51757812 28.14624023 C-33.83656021 29.69541861 -40.2140061 29.6447219 -46.6875 29.6875 C-49.37906347 29.72632217 -52.07030214 29.77542776 -54.76171875 29.82421875 C-56.0137207 29.84669678 -57.26572266 29.8691748 -58.55566406 29.89233398 C-64.70772615 30.08464043 -70.31135642 30.4903043 -76 33 C-76.99 33 -77.98 33 -79 33 C-79 32.34 -79 31.68 -79 31 C-77.68 31 -76.36 31 -75 31 C-75 30.34 -75 29.68 -75 29 C-74.36191406 28.93941406 -73.72382813 28.87882812 -73.06640625 28.81640625 C-71.82697266 28.69072266 -71.82697266 28.69072266 -70.5625 28.5625 C-69.73878906 28.48128906 -68.91507813 28.40007812 -68.06640625 28.31640625 C-66.01337975 28.21069185 -66.01337975 28.21069185 -65 27 C-56.79877451 25.65474165 -48.57427002 26.03392112 -40.3125 26.4375 C-39.12205078 26.48970703 -37.93160156 26.54191406 -36.70507812 26.59570312 C-33.80302234 26.72390639 -30.90144678 26.85878622 -28 27 C-28 26.34 -28 25.68 -28 25 C-24.17679443 23.57741188 -21.08718695 22.75957724 -17 23 C-17 21.02 -17 19.04 -17 17 C-15.68 16.67 -14.36 16.34 -13 16 C-13 16.66 -13 17.32 -13 18 C-8.4476423 15.7853395 -7.00602715 13.58520492 -5 9 C-4.34 8.01 -3.68 7.02 -3 6 C-3.79496887 6.00222061 -4.58993774 6.00444122 -5.40899658 6.00672913 C-12.99629626 6.02698257 -20.58358235 6.04209945 -28.17090225 6.05181217 C-32.0691877 6.05697381 -35.96745033 6.06394501 -39.86572266 6.07543945 C-56.60178746 6.12353641 -73.29284946 6.14735541 -90 5 C-90 4.67 -90 4.34 -90 4 C-79.23812802 2.09280031 -68.89913634 1.73252363 -58.0078125 1.8046875 C-56.32388479 1.80842833 -54.63995486 1.81127023 -52.95602417 1.81326294 C-48.57328028 1.82081527 -44.19067384 1.84038909 -39.8079834 1.8626709 C-35.31601825 1.88331281 -30.82403039 1.89230345 -26.33203125 1.90234375 C-17.55462518 1.92364495 -8.7773298 1.95767626 0 2 C0 1.34 0 0.68 0 0 Z " fill="#20D0FB" transform="translate(321,184)"/>
<path d="M0 0 C6.79328568 -0.06159455 13.5863846 -0.1124938 20.37991333 -0.13656616 C22.24575353 -0.14398713 24.11158418 -0.15459155 25.97738647 -0.16860962 C48.16684808 -0.32325688 48.16684808 -0.32325688 54.71124268 4.03967285 C47.96124268 4.16467285 47.96124268 4.16467285 45.71124268 3.03967285 C43.6877851 2.94293968 41.6610829 2.91170649 39.63531494 2.91027832 C38.35540176 2.90712616 37.07548859 2.903974 35.75679016 2.90072632 C34.34707607 2.90251938 32.9373623 2.90457114 31.52764893 2.90686035 C30.07386763 2.90618589 28.62008645 2.90521469 27.16630554 2.90396118 C24.10371844 2.90248295 21.04116039 2.90463747 17.97857666 2.90930176 C14.11007874 2.91491438 10.24165091 2.91168892 6.37315559 2.90584946 C-13.74965262 2.85694831 -13.74965262 2.85694831 -33.85075378 3.68807983 C-42.82444507 4.24886735 -51.80195285 4.11141697 -60.78875732 4.03967285 C-64.23667017 4.01303825 -67.68453075 3.99316643 -71.13250732 3.97717285 C-71.91049683 3.96887451 -72.68848633 3.96057617 -73.49005127 3.95202637 C-76.6983916 3.9372919 -79.22117899 4.01714674 -82.28875732 5.03967285 C-83.02199529 7.05475643 -83.02199529 7.05475643 -83.28875732 9.03967285 C-82.29875732 9.03967285 -81.30875732 9.03967285 -80.28875732 9.03967285 C-80.02063232 9.67904785 -79.75250732 10.31842285 -79.47625732 10.97717285 C-78.4020798 13.37098971 -78.4020798 13.37098971 -75.28875732 14.03967285 C-74.72625732 15.97717285 -74.72625732 15.97717285 -74.28875732 18.03967285 C-73.62875732 18.69967285 -72.96875732 19.35967285 -72.28875732 20.03967285 C-72.61875732 21.02967285 -72.94875732 22.01967285 -73.28875732 23.03967285 C-74.27875732 23.03967285 -75.26875732 23.03967285 -76.28875732 23.03967285 C-77.75360107 21.0279541 -77.75360107 21.0279541 -79.22625732 18.35217285 C-83.15211272 11.52041468 -86.8538136 7.49463389 -93.28875732 3.03967285 C-93.28875732 2.70967285 -93.28875732 2.37967285 -93.28875732 2.03967285 C-88.38372723 1.24986205 -83.67787934 0.89379985 -78.69671631 0.83435059 C-77.96895241 0.82445949 -77.24118851 0.81456839 -76.49137115 0.80437756 C-74.08923001 0.77291315 -71.6870701 0.74801107 -69.28485107 0.7232666 C-67.58014004 0.70248012 -65.87543324 0.68134446 -64.17073059 0.65988159 C-59.62624626 0.60408979 -55.08171633 0.55447603 -50.53713989 0.50683975 C-47.72826006 0.47719399 -44.91939676 0.44628654 -42.11053467 0.41500854 C-30.29475809 0.28401742 -18.47889397 0.16668207 -6.66286469 0.06098938 C-4.44190602 0.04104794 -2.22095273 0.02059048 0 0 Z " fill="#884FE4" transform="translate(264.28875732421875,100.9603271484375)"/>
<path d="M0 0 C9.24 0 18.48 0 28 0 C28 1.98 28 3.96 28 6 C24.7 6 21.4 6 18 6 C18 15.24 18 24.48 18 34 C15.69 34 13.38 34 11 34 C11 24.76 11 15.52 11 6 C7.37 6 3.74 6 0 6 C0 4.02 0 2.04 0 0 Z " fill="#8030DC" transform="translate(350,331)"/>
<path d="M0 0 C-0.33 1.98 -0.66 3.96 -1 6 C-0.01 6.33 0.98 6.66 2 7 C2 7.66 2 8.32 2 9 C3.32 9.33 4.64 9.66 6 10 C6 11.32 6 12.64 6 14 C6.99 14.495 6.99 14.495 8 15 C8 17.31 8 19.62 8 22 C7.34 22.33 6.68 22.66 6 23 C5.53476937 24.89533342 5.53476937 24.89533342 5.375 27.0625 C5.189375 29.0115625 5.189375 29.0115625 5 31 C6.32 31.66 7.64 32.32 9 33 C8.6875 35.375 8.6875 35.375 8 38 C7.01 38.66 6.02 39.32 5 40 C4.31974363 41.99541868 3.65509503 43.99617991 3 46 C2.319375 46.969375 1.63875 47.93875 0.9375 48.9375 C-1.24445391 52.3863949 -1.67761771 54.97022138 -2 59 C-2.8353125 59.15662109 -2.8353125 59.15662109 -3.6875 59.31640625 C-6.45463156 60.13439277 -8.55318141 61.41196829 -11 62.9375 C-12.66077557 63.96788972 -14.32715507 64.98932285 -16 66 C-16.598125 66.37253906 -17.19625 66.74507813 -17.8125 67.12890625 C-23.45805368 69.37704638 -30.00495061 69.14312303 -36 69.09765625 C-36.7211499 69.0962413 -37.4422998 69.09482635 -38.18530273 69.09336853 C-40.45691324 69.08783381 -42.72842 69.07529423 -45 69.0625 C-46.55338398 69.05747654 -48.10676952 69.05291512 -49.66015625 69.04882812 C-53.44014328 69.03788589 -57.22005414 69.0206676 -61 69 C-61 68.67 -61 68.34 -61 68 C-60.13947021 67.99589111 -59.27894043 67.99178223 -58.39233398 67.98754883 C-31.39531023 68.52062975 -31.39531023 68.52062975 -7.80078125 56.8984375 C-4.95688673 53.90031876 -2.88131287 50.66440459 -1 47 C-0.64808594 46.40574219 -0.29617188 45.81148437 0.06640625 45.19921875 C2.57290661 39.29478484 2.2409714 32.44812856 2.3125 26.125 C2.34150391 25.27808594 2.37050781 24.43117187 2.40039062 23.55859375 C2.49148142 14.4074727 -1.42288276 7.68301822 -6 0 C-3.50907189 -1.24546405 -2.58919267 -0.7767578 0 0 Z " fill="#5375EA" transform="translate(320,145)"/>
<path d="M0 0 C-0.625 2.25 -0.625 2.25 -2 5 C-3.546875 5.8353125 -3.546875 5.8353125 -5.125 6.6875 C-8.22914726 8.6540928 -8.22914726 8.6540928 -8.390625 11.47265625 C-8.37637119 14.00627129 -8.25965748 16.48036077 -8 19 C-7.01 19.33 -6.02 19.66 -5 20 C-5 16.37 -5 12.74 -5 9 C-4.01 9 -3.02 9 -2 9 C-2.10699219 9.58007812 -2.21398437 10.16015625 -2.32421875 10.7578125 C-3.14026463 16.07527272 -3.24913491 19.40639547 0 24 C3.3533699 26.63479064 6.87528406 26.42669475 11 26 C14.46316502 24.80263312 14.46316502 24.80263312 17 22 C18.07959802 18.70438499 18.61908795 15.44134335 19 12 C19.66 12.33 20.32 12.66 21 13 C21.48929664 20.21712538 21.48929664 20.21712538 19.125 24 C17 26 17 26 15 26 C14.67 27.32 14.34 28.64 14 30 C14.598125 29.649375 15.19625 29.29875 15.8125 28.9375 C18 28 18 28 21 29 C16.4538249 32.82724508 11.84774055 33.66694988 6 34 C0.34465008 33.37702154 -3.74452768 31.78158325 -7.5625 27.5 C-11.48168331 22.43725895 -11.67833474 17.19922583 -11 11 C-9.36371384 6.28678443 -5.49634862 0 0 0 Z " fill="#8836E3" transform="translate(200,332)"/>
<path d="M0 0 C1.32 0 2.64 0 4 0 C6 3 6 3 5.75 5.125 C5 7 5 7 3 8 C3 7.34 3 6.68 3 6 C2.34 6 1.68 6 1 6 C0.67 7.32 0.34 8.64 0 10 C-0.66 9.67 -1.32 9.34 -2 9 C-2 10.32 -2 11.64 -2 13 C-2.66 13 -3.32 13 -4 13 C-4 14.98 -4 16.96 -4 19 C-0.37 19 3.26 19 7 19 C7 19.33 7 19.66 7 20 C4.03 20.33 1.06 20.66 -2 21 C-1.28972656 21.04898437 -0.57945312 21.09796875 0.15234375 21.1484375 C1.07144531 21.22320312 1.99054688 21.29796875 2.9375 21.375 C3.85402344 21.44460938 4.77054687 21.51421875 5.71484375 21.5859375 C6.46894531 21.72257812 7.22304688 21.85921875 8 22 C8.33 22.66 8.66 23.32 9 24 C4.38 24.33 -0.24 24.66 -5 25 C-5.99 27.31 -6.98 29.62 -8 32 C-10.31 32 -12.62 32 -15 32 C-14.38696372 26.59491957 -12.55619307 22.07560955 -10.4375 17.125 C-10.10814453 16.34125 -9.77878906 15.5575 -9.43945312 14.75 C-8.63203214 12.83091244 -7.81680231 10.9151135 -7 9 C-6.34 9 -5.68 9 -5 9 C-4.54625 8.071875 -4.0925 7.14375 -3.625 6.1875 C-2 3 -2 3 0 0 Z " fill="#8124E7" transform="translate(333,333)"/>
<path d="M0 0 C0.66 0.66 1.32 1.32 2 2 C1 3 1 3 -1.06640625 3.09765625 C-4.53320312 3.04882812 -4.53320312 3.04882812 -8 3 C-8 7.62 -8 12.24 -8 17 C-1.97920007 16.67589322 -1.97920007 16.67589322 4 16 C4.33 15.34 4.66 14.68 5 14 C5 15.98 5 17.96 5 20 C4.34 20 3.68 20 3 20 C3 20.66 3 21.32 3 22 C3.99 22.33 4.98 22.66 6 23 C6.33 24.98 6.66 26.96 7 29 C4.625 28.4375 4.625 28.4375 2 27 C0.6875 23.375 0.6875 23.375 0 20 C-2.97 20 -5.94 20 -9 20 C-9 23.63 -9 27.26 -9 31 C-10.32 31 -11.64 31 -13 31 C-13 21.1 -13 11.2 -13 1 C-4.03125 -0.28125 -4.03125 -0.28125 0 0 Z " fill="#7F0DF7" transform="translate(172,332)"/>
<path d="M0 0 C2.31 0 4.62 0 7 0 C7 11.22 7 22.44 7 34 C5.02 34 3.04 34 1 34 C1 27.07 1 20.14 1 13 C0.01 12.67 -0.98 12.34 -2 12 C-2 10.35 -2 8.7 -2 7 C-1.34 7 -0.68 7 0 7 C0 4.69 0 2.38 0 0 Z " fill="#8019EE" transform="translate(305,331)"/>
<path d="M0 0 C2.31 0 4.62 0 7 0 C7 11.22 7 22.44 7 34 C4.69 34 2.38 34 0 34 C0 29.38 0 24.76 0 20 C-5.28 20 -10.56 20 -16 20 C-16 19.34 -16 18.68 -16 18 C-13.22964291 17.77837143 -10.45961005 17.57220751 -7.6875 17.375 C-6.90181641 17.31054688 -6.11613281 17.24609375 -5.30664062 17.1796875 C-4.54931641 17.128125 -3.79199219 17.0765625 -3.01171875 17.0234375 C-2.31522217 16.97106934 -1.61872559 16.91870117 -0.90112305 16.86474609 C1 17 1 17 4 19 C4 14.05 4 9.1 4 4 C2.50256881 5.49743119 2.66797307 6.98824239 2.4375 9.0625 C2.293125 10.361875 2.14875 11.66125 2 13 C1.34 13 0.68 13 0 13 C0 8.71 0 4.42 0 0 Z " fill="#7F2CDF" transform="translate(441,331)"/>
<path d="M0 0 C2.5625 1.0625 2.5625 1.0625 4.375 4.375 C5.5625 8.0625 5.5625 8.0625 5.5625 12.0625 C6.2225 12.0625 6.8825 12.0625 7.5625 12.0625 C7.2325 12.7225 6.9025 13.3825 6.5625 14.0625 C5.2425 13.7325 3.9225 13.4025 2.5625 13.0625 C2.2325 19.0025 1.9025 24.9425 1.5625 31.0625 C-0.4175 31.0625 -2.3975 31.0625 -4.4375 31.0625 C-4.48689115 26.96911348 -4.52321501 22.87584202 -4.54736328 18.78222656 C-4.55742877 17.38929219 -4.57108234 15.99637898 -4.58837891 14.60351562 C-4.6126022 12.6029564 -4.62290814 10.60224385 -4.6328125 8.6015625 C-4.64328613 7.39709473 -4.65375977 6.19262695 -4.66455078 4.95166016 C-4.37801183 1.30552902 -3.77634647 0.0968294 0 0 Z " fill="#7B12EE" transform="translate(237.4375,332.9375)"/>
<path d="M0 0 C1.98 0 3.96 0 6 0 C6 10.89 6 21.78 6 33 C4.35 33 2.7 33 1 33 C1 27.06 1 21.12 1 15 C-1.475 14.01 -1.475 14.01 -4 13 C-4.5497272 7.36529617 -2.95047835 4.61012242 0 0 Z " fill="#800DF9" transform="translate(262,331)"/>
<path d="M0 0 C4.29 0 8.58 0 13 0 C13.33 0.99 13.66 1.98 14 3 C10.7 3 7.4 3 4 3 C4.33 6.96 4.66 10.92 5 15 C6.93875 15.12375 8.8775 15.2475 10.875 15.375 C16.75 15.75 16.75 15.75 19 18 C14.71 18.66 10.42 19.32 6 20 C5.67 23.63 5.34 27.26 5 31 C3.02 31 1.04 31 -1 31 C-0.67 20.77 -0.34 10.54 0 0 Z " fill="#7E0CF9" transform="translate(89,333)"/>
<path d="M0 0 C-1 2 -1 2 -3.4375 2.9375 C-6.29863959 3.84547289 -6.29863959 3.84547289 -8 7 C-8.99 7 -9.98 7 -11 7 C-15.15526521 9.0776326 -16.07343282 12.19018732 -17.484375 16.35546875 C-17.65453125 16.89816406 -17.8246875 17.44085938 -18 18 C-18.66 18 -19.32 18 -20 18 C-20.33 20.31 -20.66 22.62 -21 25 C-19.35 24.67 -17.7 24.34 -16 24 C-16 23.34 -16 22.68 -16 22 C-13.36 22 -10.72 22 -8 22 C-7.67 21.34 -7.34 20.68 -7 20 C-3.91674642 19.9417747 -0.83363495 19.90632866 2.25 19.875 C3.55904297 19.84986328 3.55904297 19.84986328 4.89453125 19.82421875 C5.73886719 19.81777344 6.58320313 19.81132812 7.453125 19.8046875 C8.22817383 19.79421387 9.00322266 19.78374023 9.80175781 19.77294922 C12.25883539 20.02673444 13.87311542 20.77555848 16 22 C15.43716309 22.00410889 14.87432617 22.00821777 14.29443359 22.01245117 C2.11698081 22.16755425 -7.73122773 23.14459611 -19 28 C-20.99392588 28.68461964 -22.99235692 29.35671645 -25 30 C-26.06509345 21.17494001 -23.008366 14.10406525 -18 7 C-14.84492154 4.57000168 -11.76161052 3.23371149 -8 2 C-6.70449219 1.45085937 -6.70449219 1.45085937 -5.3828125 0.890625 C-3 0 -3 0 0 0 Z " fill="#7023F5" transform="translate(249,217)"/>
<path d="M0 0 C23.76 0 47.52 0 72 0 C72 0.33 72 0.66 72 1 C58.81400353 1.8395859 45.71001986 2.1054592 32.5 2 C29.05208715 1.9733654 25.60422657 1.95349358 22.15625 1.9375 C21.3782605 1.92920166 20.600271 1.92090332 19.79870605 1.91235352 C16.59036572 1.89761905 14.06757833 1.97747389 11 3 C10.26676204 5.01508358 10.26676204 5.01508358 10 7 C10.99 7 11.98 7 13 7 C13.268125 7.639375 13.53625 8.27875 13.8125 8.9375 C14.88667752 11.33131686 14.88667752 11.33131686 18 12 C18.5625 13.9375 18.5625 13.9375 19 16 C19.66 16.66 20.32 17.32 21 18 C20.67 18.99 20.34 19.98 20 21 C19.01 21 18.02 21 17 21 C15.53515625 18.98828125 15.53515625 18.98828125 14.0625 16.3125 C10.1366446 9.48074183 6.43494373 5.45496104 0 1 C0 0.67 0 0.34 0 0 Z " fill="#7915EB" transform="translate(171,103)"/>
<path d="M0 0 C0.495 1.98 0.495 1.98 1 4 C-2.25126773 5.62563386 -5.82537975 5.1290896 -9.39697266 5.11352539 C-10.69951241 5.11374443 -10.69951241 5.11374443 -12.02836609 5.1139679 C-14.90695672 5.11326961 -17.78548314 5.1054811 -20.6640625 5.09765625 C-22.65660568 5.09579177 -24.64914931 5.09436801 -26.64169312 5.09336853 C-31.89259094 5.08954569 -37.14346122 5.07971737 -42.39434814 5.06866455 C-47.74987414 5.05844543 -53.10540457 5.05386983 -58.4609375 5.04882812 C-68.97397045 5.03809491 -79.48698294 5.02102127 -90 5 C-90 4.67 -90 4.34 -90 4 C-79.23812802 2.09280031 -68.89913634 1.73252363 -58.0078125 1.8046875 C-56.32388479 1.80842833 -54.63995486 1.81127023 -52.95602417 1.81326294 C-48.57328028 1.82081527 -44.19067384 1.84038909 -39.8079834 1.8626709 C-35.31601825 1.88331281 -30.82403039 1.89230345 -26.33203125 1.90234375 C-17.55462518 1.92364495 -8.7773298 1.95767626 0 2 C0 1.34 0 0.68 0 0 Z " fill="#57DAF4" transform="translate(321,184)"/>
<path d="M0 0 C7.92 0 15.84 0 24 0 C24 0.66 24 1.32 24 2 C21.03 2 18.06 2 15 2 C14.67 11.24 14.34 20.48 14 30 C12.68 30 11.36 30 10 30 C9.67 20.76 9.34 11.52 9 2 C6.03 2 3.06 2 0 2 C0 1.34 0 0.68 0 0 Z " fill="#7E0DF7" transform="translate(353,333)"/>
<path d="M0 0 C2.64 0 5.28 0 8 0 C8.33 1.32 8.66 2.64 9 4 C8.34 4 7.68 4 7 4 C7 3.34 7 2.68 7 2 C5.02 2 3.04 2 1 2 C1.66 8.27 2.32 14.54 3 21 C3.66 21 4.32 21 5 21 C4.95875 19.88625 4.9175 18.7725 4.875 17.625 C5 14 5 14 7 12 C7.97556564 14.92669691 8.0606341 16.44061321 7.87890625 19.44921875 C7.83056641 20.29677734 7.78222656 21.14433594 7.73242188 22.01757812 C7.67634766 22.89865234 7.62027344 23.77972656 7.5625 24.6875 C7.51029297 25.58017578 7.45808594 26.47285156 7.40429688 27.39257812 C7.2747182 29.5954156 7.13975754 31.79778873 7 34 C4.69 34 2.38 34 0 34 C0 22.78 0 11.56 0 0 Z " fill="#832EE1" transform="translate(276,331)"/>
<path d="M0 0 C0.66 0.99 1.32 1.98 2 3 C5.33777905 6.71738227 5.33777905 6.71738227 9.91796875 8.203125 C15.42762286 8.31692164 19.08881489 7.5078392 24 5 C24 7.64 24 10.28 24 13 C17.73207883 16.47740832 11.25629014 16.62454512 4.4375 14.6875 C1.93359375 13.88671875 1.93359375 13.88671875 0 13 C-0.33 12.34 -0.66 11.68 -1 11 C0.32 11 1.64 11 3 11 C3 11.66 3 12.32 3 13 C3.99 12.67 4.98 12.34 6 12 C5.67 11.01 5.34 10.02 5 9 C1.99152582 7.77479736 1.99152582 7.77479736 -1 7 C-0.67 4.69 -0.34 2.38 0 0 Z " fill="#8425EA" transform="translate(387,350)"/>
<path d="M0 0 C0.86803253 0.24114784 0.86803253 0.24114784 1.75360107 0.48716736 C5.35923739 1.31030165 9.02032091 1.24047238 12.703125 1.31640625 C13.95980988 1.3475779 13.95980988 1.3475779 15.24188232 1.37937927 C17.91117356 1.4446255 20.58056098 1.50364358 23.25 1.5625 C25.06250984 1.60570894 26.87501005 1.64932399 28.6875 1.69335938 C33.12490296 1.8010436 37.56238168 1.90030207 42 2 C42 14.21 42 26.42 42 39 C25.74690766 39.46771489 13.7962539 38.3428356 0 29 C1.32 28.67 2.64 28.34 4 28 C4 28.66 4 29.32 4 30 C6.31 30.66 8.62 31.32 11 32 C11 32.66 11 33.32 11 34 C12.65 34 14.3 34 16 34 C16 34.66 16 35.32 16 36 C16.63808594 35.98839844 17.27617187 35.97679687 17.93359375 35.96484375 C18.75988281 35.95582031 19.58617187 35.94679687 20.4375 35.9375 C21.26121094 35.92589844 22.08492187 35.91429687 22.93359375 35.90234375 C25 36 25 36 26 37 C27.97513667 37.15126231 29.95678135 37.22173766 31.9375 37.25 C33.01902344 37.27578125 34.10054687 37.3015625 35.21484375 37.328125 C36.13394531 37.21984375 37.05304688 37.1115625 38 37 C40.45378929 33.31931607 40.30646214 31.31946281 40.4140625 26.92578125 C40.43342865 26.2419487 40.4527948 25.55811615 40.4727478 24.8535614 C40.53243997 22.67333375 40.57888631 20.49305298 40.625 18.3125 C40.66318943 16.8326595 40.70224174 15.352841 40.7421875 13.87304688 C40.83813202 10.2488995 40.92220151 6.62458743 41 3 C39.86457764 3.01571045 38.72915527 3.0314209 37.55932617 3.04760742 C33.34943731 3.10188032 29.13957941 3.13634037 24.92944336 3.16479492 C23.10679933 3.1798876 21.28419164 3.20036395 19.46166992 3.22631836 C16.842845 3.26268103 14.22449993 3.27972124 11.60546875 3.29296875 C10.38188911 3.31619453 10.38188911 3.31619453 9.1335907 3.33988953 C3.39055578 3.34160054 3.39055578 3.34160054 1.26069641 1.47871399 C0.63665169 0.74675056 0.63665169 0.74675056 0 0 Z " fill="#38CBF5" transform="translate(194,133)"/>
<path d="M0 0 C1.125 1.6875 1.125 1.6875 2 4 C1.2314304 6.79479854 0.29269381 8.64876743 -1.5625 10.875 C-3.53983464 13.79801642 -3.66684594 16.53519775 -4 20 C-4.556875 20.10441406 -5.11375 20.20882812 -5.6875 20.31640625 C-8.45463156 21.13439277 -10.55318141 22.41196829 -13 23.9375 C-14.66077557 24.96788972 -16.32715507 25.98932285 -18 27 C-18.598125 27.37253906 -19.19625 27.74507812 -19.8125 28.12890625 C-25.45805368 30.37704638 -32.00495061 30.14312303 -38 30.09765625 C-38.7211499 30.0962413 -39.4422998 30.09482635 -40.18530273 30.09336853 C-42.45691324 30.08783381 -44.72842 30.07529423 -47 30.0625 C-48.55338398 30.05747654 -50.10676952 30.05291512 -51.66015625 30.04882812 C-55.44014328 30.03788589 -59.22005414 30.0206676 -63 30 C-63 29.67 -63 29.34 -63 29 C-62.13947021 28.99589111 -61.27894043 28.99178223 -60.39233398 28.98754883 C-33.38022156 29.53351997 -33.38022156 29.53351997 -9.796875 17.8828125 C-4.82468651 12.67282369 -2.28811732 6.74392475 0 0 Z " fill="#3385F7" transform="translate(322,184)"/>
<path d="M0 0 C12.28473372 3.5665356 22.62300952 13.65096096 29.28515625 24.3359375 C29.52105469 24.88507813 29.75695312 25.43421875 30 26 C29.67 26.66 29.34 27.32 29 28 C28.01 27.34 27.02 26.68 26 26 C25.34 26.33 24.68 26.66 24 27 C23.71125 25.88625 23.4225 24.7725 23.125 23.625 C22.30758671 19.99708908 22.30758671 19.99708908 20 18 C19.67 18.33 19.34 18.66 19 19 C17.33382885 19.04063832 15.66611905 19.042721 14 19 C14 16.69 14 14.38 14 12 C13.01 11.67 12.02 11.34 11 11 C11 10.34 11 9.68 11 9 C9.68 9.33 8.36 9.66 7 10 C7 9.01 7 8.02 7 7 C6.34 6.67 5.68 6.34 5 6 C5 5.34 5 4.68 5 4 C4.360625 3.896875 3.72125 3.79375 3.0625 3.6875 C2.381875 3.460625 1.70125 3.23375 1 3 C0.67 2.01 0.34 1.02 0 0 Z " fill="#6082EB" transform="translate(330,109)"/>
<path d="M0 0 C2.31 0 4.62 0 7 0 C7 4.62 7 9.24 7 14 C11.95 14 16.9 14 22 14 C22 14.33 22 14.66 22 15 C16.72 15 11.44 15 6 15 C6 10.71 6 6.42 6 2 C4.68 2 3.36 2 2 2 C2.33 2.99 2.66 3.98 3 5 C3.38074551 14.03710659 2.93766456 23.00846662 2 32 C3.32 32 4.64 32 6 32 C6 28.37 6 24.74 6 21 C6.33 21 6.66 21 7 21 C7 25.29 7 29.58 7 34 C4.69 34 2.38 34 0 34 C0 22.78 0 11.56 0 0 Z " fill="#8335DD" transform="translate(418,331)"/>
<path d="M0 0 C0.33 0.66 0.66 1.32 1 2 C2.299375 1.6596875 2.299375 1.6596875 3.625 1.3125 C7.68338409 0.9367237 9.55166676 1.94742069 13 4 C13 4.66 13 5.32 13 6 C13.58378418 5.96447021 14.16756836 5.92894043 14.76904297 5.89233398 C17.47061643 5.73258645 20.17273101 5.58499581 22.875 5.4375 C23.7928125 5.38142578 24.710625 5.32535156 25.65625 5.26757812 C31.87834177 4.93894652 37.82183958 5.1947736 44 6 C44 5.01 44 4.02 44 3 C44.99 3.33 45.98 3.66 47 4 C46.67 4.66 46.34 5.32 46 6 C57.22 6 68.44 6 80 6 C80 6.33 80 6.66 80 7 C70.15995906 7.06949656 60.31997647 7.12280952 50.47974014 7.15543652 C45.91055892 7.1710955 41.34154555 7.19233799 36.77246094 7.22631836 C32.36340433 7.25890357 27.95450922 7.27685126 23.54534149 7.28463173 C21.86280525 7.29017675 20.18027789 7.3010048 18.49781036 7.31719017 C16.1419003 7.33895363 13.7866584 7.34196743 11.43066406 7.34057617 C10.73438904 7.351362 10.03811401 7.36214783 9.32073975 7.3732605 C6.3210223 7.35408018 4.21928015 7.11311716 1.5355835 5.72871399 C0 4 0 4 0 0 Z " fill="#6C1CEF" transform="translate(192,127)"/>
<path d="M0 0 C0.99 0 1.98 0 3 0 C3 9.57 3 19.14 3 29 C1.68 29 0.36 29 -1 29 C-1.33 24.71 -1.66 20.42 -2 16 C-5.63 15.67 -9.26 15.34 -13 15 C-12.67 14.34 -12.34 13.68 -12 13 C-9.75 12.62109375 -9.75 12.62109375 -7 12.4375 C-3.69240381 12.46519462 -3.69240381 12.46519462 -1 11 C-0.76636119 9.15108054 -0.58696365 7.29511969 -0.4375 5.4375 C-0.35371094 4.42558594 -0.26992187 3.41367187 -0.18359375 2.37109375 C-0.12300781 1.58863281 -0.06242188 0.80617188 0 0 Z " fill="#7E0DF8" transform="translate(145,334)"/>
<path d="M0 0 C1.20064547 3.73886856 1.08231701 7.25068173 1.02172852 11.15527344 C1.01212097 11.86786819 1.00251343 12.58046295 0.99261475 13.31465149 C0.95971256 15.66299596 0.91934709 18.01114926 0.87890625 20.359375 C0.85459654 21.99032931 0.83075341 23.62129063 0.80735779 25.2522583 C0.74460152 29.53981533 0.67551101 33.82724777 0.60510254 38.11468506 C0.53434262 42.49176369 0.46957151 46.86893049 0.40429688 51.24609375 C0.27539357 59.83082681 0.13979864 68.41543749 0 77 C2.56537935 76.85680991 5.13035588 76.7090225 7.6953125 76.55859375 C8.77872925 76.49883362 8.77872925 76.49883362 9.8840332 76.43786621 C15.12974156 76.12515855 19.93551693 75.30605408 25 74 C26.85209747 73.61491043 28.70634252 73.24001842 30.5625 72.875 C31.40941406 72.70742188 32.25632813 72.53984375 33.12890625 72.3671875 C33.74636719 72.24601562 34.36382812 72.12484375 35 72 C27.41383875 78.26911937 17.94311754 78.19726292 8.5625 78.08203125 C7.64017578 78.07610962 6.71785156 78.07018799 5.76757812 78.06408691 C3.5115995 78.04874509 1.25586102 78.02724036 -1 78 C-1.02315232 68.2730316 -1.04092987 58.54606973 -1.05181217 48.8190794 C-1.05703465 44.30263484 -1.06412084 39.78620911 -1.07543945 35.26977539 C-1.08629081 30.91260912 -1.09228163 26.55546098 -1.09487724 22.19828224 C-1.09672742 20.53448005 -1.10034027 18.87067887 -1.10573006 17.20688438 C-1.11297029 14.87968157 -1.11398967 12.55255403 -1.11352539 10.2253418 C-1.11712067 9.53482224 -1.12071594 8.84430267 -1.12442017 8.13285828 C-1.11792756 5.13284506 -0.95763658 2.87290974 0 0 Z " fill="#29E6EE" transform="translate(179,226)"/>
<path d="M0 0 C1.98 0 3.96 0 6 0 C6 0.66 6 1.32 6 2 C6.66 2 7.32 2 8 2 C8.12375 3.11375 8.2475 4.2275 8.375 5.375 C8.6465813 9.03103677 8.6465813 9.03103677 11 11 C10.625 13.125 10.625 13.125 10 15 C9.34 14.67 8.68 14.34 8 14 C7.67 14.66 7.34 15.32 7 16 C6.67 14.35 6.34 12.7 6 11 C4.03177114 12.96822886 4.33751619 16.34808709 4 19 C3.01 19.33 2.02 19.66 1 20 C-0.03026944 13.30324864 -0.10152799 6.7685324 0 0 Z " fill="#800EF9" transform="translate(277,333)"/>
<path d="M0 0 C3.96 0 7.92 0 12 0 C9 2 9 2 2 2 C2 11.9 2 21.8 2 32 C3.32 32 4.64 32 6 32 C6 28.37 6 24.74 6 21 C8.97 21 11.94 21 15 21 C15.33 22.32 15.66 23.64 16 25 C16.66 25.33 17.32 25.66 18 26 C17.34 26.66 16.68 27.32 16 28 C15.34 26.02 14.68 24.04 14 22 C11.69 22 9.38 22 7 22 C7 25.96 7 29.92 7 34 C4.69 34 2.38 34 0 34 C0 22.78 0 11.56 0 0 Z " fill="#8C44DB" transform="translate(157,331)"/>
<path d="M0 0 C0.66 0 1.32 0 2 0 C2 0.66 2 1.32 2 2 C3.32 2 4.64 2 6 2 C5 5 5 5 1.859375 6.71875 C0.49629357 7.32774695 -0.87409564 7.92055589 -2.25 8.5 C-2.97437256 8.80824707 -3.69874512 9.11649414 -4.44506836 9.43408203 C-15.77859194 14.11188342 -26.85593377 15.51289361 -39 16 C-39.66 15.01 -40.32 14.02 -41 13 C-35.25817986 12.32872249 -29.69168268 11.89783654 -23.91015625 12.16015625 C-21.6669964 12.12700549 -21.6669964 12.12700549 -19 10 C-17.03289833 9.60159966 -15.05057889 9.27523466 -13.0625 9 C-7.76055627 8.28120456 -7.76055627 8.28120456 -3 6 C-1.23272142 2.9665533 -1.23272142 2.9665533 0 0 Z " fill="#4D9AEE" transform="translate(330,224)"/>
<path d="M0 0 C2.31 0 4.62 0 7 0 C8.65 3.3 10.3 6.6 12 10 C11.34 10.66 10.68 11.32 10 12 C8.6345405 15.59984777 9.17186596 16.85932979 10 21 C6.04 21 2.08 21 -2 21 C-2 19.02 -2 17.04 -2 15 C-1.34 15 -0.68 15 0 15 C0 13.68 0 12.36 0 11 C0.66 11 1.32 11 2 11 C1.125 16.75 1.125 16.75 0 19 C2.64 19.33 5.28 19.66 8 20 C6.35 16.04 4.7 12.08 3 8 C4.32 8 5.64 8 7 8 C6.67 6.02 6.34 4.04 6 2 C4.68 2 3.36 2 2 2 C0.26337666 5.22515763 -0.8905928 8.51329166 -2 12 C-2.66 11.67 -3.32 11.34 -4 11 C-3.52269162 9.5410574 -3.04308958 8.08286504 -2.5625 6.625 C-2.29566406 5.81289063 -2.02882813 5.00078125 -1.75390625 4.1640625 C-1 2 -1 2 0 0 Z " fill="#8934E9" transform="translate(331,331)"/>
<path d="M0 0 C0.66 0.33 1.32 0.66 2 1 C2.48929664 8.21712538 2.48929664 8.21712538 0.125 12 C-2 14 -2 14 -4 14 C-4.33 15.32 -4.66 16.64 -5 18 C-4.401875 17.649375 -3.80375 17.29875 -3.1875 16.9375 C-1 16 -1 16 2 17 C-2.53285773 20.81603372 -7.16131536 21.69998854 -13 22 C-16.54259479 21.45535618 -19.80017984 20.63435041 -23 19 C-23.66 18.01 -24.32 17.02 -25 16 C-24.3709375 16.2165625 -23.741875 16.433125 -23.09375 16.65625 C-17.48554072 18.48060724 -12.89031404 19.32723967 -7 19 C-7.33 18.34 -7.66 17.68 -8 17 C-9.546875 17.12375 -9.546875 17.12375 -11.125 17.25 C-15.59017199 16.96192439 -17.52326044 15.71355283 -21 13 C-20.67 12.34 -20.34 11.68 -20 11 C-19.319375 11.495 -18.63875 11.99 -17.9375 12.5 C-14.25859625 14.37858915 -12.0908775 14.50238846 -8 14 C-4.53683498 12.80263312 -4.53683498 12.80263312 -2 10 C-0.92040198 6.70438499 -0.38091205 3.44134335 0 0 Z " fill="#8A3CE1" transform="translate(219,344)"/>
<path d="M0 0 C0.33 0 0.66 0 1 0 C1 11.22 1 22.44 1 34 C-1.31 34 -3.62 34 -6 34 C-6.33 28.39 -6.66 22.78 -7 17 C-7.99 19.475 -7.99 19.475 -9 22 C-11 19 -11 19 -11 17 C-11.66 17 -12.32 17 -13 17 C-13.33 18.32 -13.66 19.64 -14 21 C-14.66 21 -15.32 21 -16 21 C-14.68938409 16.76570244 -13.05643741 12.92592596 -11 9 C-10.7525 9.61875 -10.505 10.2375 -10.25 10.875 C-8.98960746 13.45868886 -8.98960746 13.45868886 -5 15 C-5 20.94 -5 26.88 -5 33 C-3.35 33 -1.7 33 0 33 C0 22.11 0 11.22 0 0 Z " fill="#A965EF" transform="translate(268,331)"/>
<path d="M0 0 C1.98 0 3.96 0 6 0 C6 10.56 6 21.12 6 32 C4.68 31.67 3.36 31.34 2 31 C2.99 31 3.98 31 5 31 C5 21.43 5 11.86 5 2 C4.01 2 3.02 2 2 2 C2.02320313 2.77085937 2.04640625 3.54171875 2.0703125 4.3359375 C2.09738281 5.84027344 2.09738281 5.84027344 2.125 7.375 C2.14820313 8.37273437 2.17140625 9.37046875 2.1953125 10.3984375 C2 13 2 13 0 15 C-2.54229159 15.17201285 -4.96149996 15.23257617 -7.5 15.1875 C-8.18964844 15.18685547 -8.87929687 15.18621094 -9.58984375 15.18554688 C-14.71888951 15.14055525 -14.71888951 15.14055525 -17 14 C-16.67 13.34 -16.34 12.68 -16 12 C-10.72 12.33 -5.44 12.66 0 13 C0 8.71 0 4.42 0 0 Z " fill="#7619DD" transform="translate(143,332)"/>
<path d="M0 0 C5.2162083 -0.3129725 8.56575777 0.14941571 13 3 C13.33 3.99 13.66 4.98 14 6 C13.34 6.66 12.68 7.32 12 8 C11.87625 7.360625 11.7525 6.72125 11.625 6.0625 C11.41875 5.381875 11.2125 4.70125 11 4 C10.34 3.67 9.68 3.34 9 3 C9.04640625 3.74765625 9.0928125 4.4953125 9.140625 5.265625 C9.4299356 13.15967133 9.4299356 13.15967133 7.625 16.6875 C3.53143795 18.73428103 -0.50994883 18.3084768 -5 18 C-5 17.34 -5 16.68 -5 16 C-4.38511719 15.95101563 -3.77023438 15.90203125 -3.13671875 15.8515625 C-2.32847656 15.77679688 -1.52023438 15.70203125 -0.6875 15.625 C0.11300781 15.55539062 0.91351563 15.48578125 1.73828125 15.4140625 C4.27224441 15.10435574 4.27224441 15.10435574 7 13 C7 11.02 7 9.04 7 7 C3.04 6.67 -0.92 6.34 -5 6 C-5 5.34 -5 4.68 -5 4 C-0.545 3.505 -0.545 3.505 4 3 C2.68 2.01 1.36 1.02 0 0 Z " fill="#8531E1" transform="translate(169,331)"/>
<path d="M0 0 C0.66 0 1.32 0 2 0 C3.07511878 4.39006837 3.3257941 7.04622243 1.0625 10.9375 C0.381875 11.948125 -0.29875 12.95875 -1 14 C-2.65 14 -4.3 14 -6 14 C-6 13.01 -6 12.02 -6 11 C-6.66 11 -7.32 11 -8 11 C-7.67 8.36 -7.34 5.72 -7 3 C-4.03 3.495 -4.03 3.495 -1 4 C-0.67 2.68 -0.34 1.36 0 0 Z " fill="#8D2CEE" transform="translate(255,348)"/>
<path d="M0 0 C4.62 0 9.24 0 14 0 C14 0.66 14 1.32 14 2 C10.04 2 6.08 2 2 2 C2 11.9 2 21.8 2 32 C3.65 32.33 5.3 32.66 7 33 C7 33.33 7 33.66 7 34 C4.69 34 2.38 34 0 34 C0 22.78 0 11.56 0 0 Z " fill="#863ED7" transform="translate(87,331)"/>
<path d="M0 0 C1.98 0 3.96 0 6 0 C6 10.89 6 21.78 6 33 C4.35 33 2.7 33 1 33 C1 26.4 1 19.8 1 13 C1.33 13 1.66 13 2 13 C2 19.27 2 25.54 2 32 C2.99 32 3.98 32 5 32 C5 22.43 5 12.86 5 3 C4.01 3 3.02 3 2 3 C1.67 4.65 1.34 6.3 1 8 C-0.65 8.33 -2.3 8.66 -4 9 C-2.94124926 5.59687262 -1.99097846 2.98646769 0 0 Z " fill="#7619DE" transform="translate(262,331)"/>
<path d="M0 0 C9.24 0 18.48 0 28 0 C28 1.98 28 3.96 28 6 C24.7 6 21.4 6 18 6 C18 5.34 18 4.68 18 4 C20.97 4 23.94 4 27 4 C27 3.34 27 2.68 27 2 C18.75 2 10.5 2 2 2 C2 2.99 2 3.98 2 5 C4.64 5 7.28 5 10 5 C10 5.33 10 5.66 10 6 C6.7 6 3.4 6 0 6 C0 4.02 0 2.04 0 0 Z " fill="#8D49DB" transform="translate(350,331)"/>
<path d="M0 0 C0.33 0 0.66 0 1 0 C1 1.65 1 3.3 1 5 C0.34 5 -0.32 5 -1 5 C-1 6.65 -1 8.3 -1 10 C0.32 10.33 1.64 10.66 3 11 C1.02 14.96 -0.96 18.92 -3 23 C-3.33 23 -3.66 23 -4 23 C-4.33 20.69 -4.66 18.38 -5 16 C-5.66 17.32 -6.32 18.64 -7 20 C-7.66 20 -8.32 20 -9 20 C-7.32073668 15.63221913 -5.36694083 11.41834992 -3.375 7.1875 C-2.88773437 6.14819336 -2.88773437 6.14819336 -2.390625 5.08789062 C-1.59500115 3.39133977 -0.79767301 1.69558835 0 0 Z " fill="#8E35E8" transform="translate(304,333)"/>
<path d="M0 0 C1.32 0 2.64 0 4 0 C6 3 6 3 5.75 5.125 C5 7 5 7 3 8 C3 7.34 3 6.68 3 6 C2.34 6 1.68 6 1 6 C0.67 7.32 0.34 8.64 0 10 C-0.66 9.67 -1.32 9.34 -2 9 C-2 10.32 -2 11.64 -2 13 C-2.66 13 -3.32 13 -4 13 C-4.33 14.32 -4.66 15.64 -5 17 C-5 16.34 -5 15.68 -5 15 C-5.66 15 -6.32 15 -7 15 C-6.5020163 11.26512223 -6.12508244 9.18762365 -4 6 C-3.38125 4.948125 -2.7625 3.89625 -2.125 2.8125 C-1.42375 1.884375 -0.7225 0.95625 0 0 Z " fill="#7F10F7" transform="translate(333,333)"/>
<path d="M0 0 C1.65 0 3.3 0 5 0 C5.33 0.99 5.66 1.98 6 3 C10.27699513 6.49935965 13.72095072 6.26842623 19 6 C19.33 6.99 19.66 7.98 20 9 C19 10 19 10 15.5625 10.3125 C10.31225249 10.22689814 5.43460426 8.84159108 1 6 C-0.125 2.75 -0.125 2.75 0 0 Z " fill="#7E0EF5" transform="translate(193,354)"/>
<path d="M0 0 C2.97 0 5.94 0 9 0 C8.01 0.66 7.02 1.32 6 2 C5.27617533 4.05925139 5.27617533 4.05925139 5 6 C5.99 6 6.98 6 8 6 C8.268125 6.639375 8.53625 7.27875 8.8125 7.9375 C9.88667752 10.33131686 9.88667752 10.33131686 13 11 C13.5625 12.9375 13.5625 12.9375 14 15 C14.66 15.66 15.32 16.32 16 17 C15.67 17.99 15.34 18.98 15 20 C14.01 20 13.02 20 12 20 C10.5 17.953125 10.5 17.953125 9 15.25 C7.53845181 12.64661729 6.16216109 10.20570435 4.3125 7.859375 C3 6 3 6 3 3 C2.01 2.67 1.02 2.34 0 2 C0 1.34 0 0.68 0 0 Z " fill="#6A1FF6" transform="translate(176,104)"/>
<path d="M0 0 C2.0625 2.0625 2.0625 2.0625 4 5 C3.75 8.8125 3.75 8.8125 3 12 C4.423125 12.0928125 4.423125 12.0928125 5.875 12.1875 C6.90625 12.455625 7.9375 12.72375 9 13 C10.375 15.5625 10.375 15.5625 11 18 C9.68 18 8.36 18 7 18 C7 17.34 7 16.68 7 16 C5.35 16 3.7 16 2 16 C0.11179167 10.94229911 -1.54895178 6.48951782 -1 1 C-0.67 0.67 -0.34 0.34 0 0 Z " fill="#7E0FF6" transform="translate(383,345)"/>
<path d="M0 0 C-1 2 -1 2 -3.4375 2.9375 C-6.29863959 3.84547289 -6.29863959 3.84547289 -8 7 C-8.99 7 -9.98 7 -11 7 C-14.57583797 9.0588158 -15.74155722 11.11980141 -17 15 C-17.99 14.67 -18.98 14.34 -20 14 C-20 14.66 -20 15.32 -20 16 C-20.66 16 -21.32 16 -22 16 C-18.61888702 6.8970035 -18.61888702 6.8970035 -13.75 4.19921875 C-12.50670673 3.67898481 -11.25634776 3.17536455 -10 2.6875 C-9.3709375 2.42388672 -8.741875 2.16027344 -8.09375 1.88867188 C-5.240747 0.72510603 -3.1081985 0 0 0 Z " fill="#5442F1" transform="translate(249,217)"/>
<path d="M0 0 C3.24992446 -0.05819424 6.49971435 -0.09366116 9.75 -0.125 C10.67039063 -0.14175781 11.59078125 -0.15851563 12.5390625 -0.17578125 C13.87324219 -0.18544922 13.87324219 -0.18544922 15.234375 -0.1953125 C16.05131836 -0.20578613 16.86826172 -0.21625977 17.70996094 -0.22705078 C20.21887518 0.02170084 21.83395625 0.74299871 24 2 C23.42145264 2.01458252 22.84290527 2.02916504 22.24682617 2.04418945 C6.86131184 2.34060003 6.86131184 2.34060003 -8 6 C-8.66 5.34 -9.32 4.68 -10 4 C-9.34 4 -8.68 4 -8 4 C-8 3.34 -8 2.68 -8 2 C-5.36 2 -2.72 2 0 2 C0 1.34 0 0.68 0 0 Z " fill="#633FEC" transform="translate(241,237)"/>
<path d="M0 0 C-3.03525486 2.02350324 -4.19426202 2.32124018 -7.6875 2.625 C-8.49574219 2.69976562 -9.30398438 2.77453125 -10.13671875 2.8515625 C-10.75160156 2.90054687 -11.36648438 2.94953125 -12 3 C-11.67 3.99 -11.34 4.98 -11 6 C-6.38 6 -1.76 6 3 6 C3 6.33 3 6.66 3 7 C2.09636719 7.09796875 1.19273437 7.1959375 0.26171875 7.296875 C-0.91777344 7.44640625 -2.09726562 7.5959375 -3.3125 7.75 C-4.48425781 7.88921875 -5.65601563 8.0284375 -6.86328125 8.171875 C-10.04781639 8.71852276 -10.04781639 8.71852276 -11.79296875 10.890625 C-12.19128906 11.58671875 -12.58960938 12.2828125 -13 13 C-13.99 14.485 -13.99 14.485 -15 16 C-14 8.57142857 -14 8.57142857 -13 5 C-13.99 5.99 -14.98 6.98 -16 8 C-16.99 7.67 -17.98 7.34 -19 7 C-13.19016422 1.61527416 -8.09147646 -0.39470617 0 0 Z " fill="#8137DA" transform="translate(402,330)"/>
<path d="M0 0 C0.66 0.33 1.32 0.66 2 1 C1.505 1.61875 1.01 2.2375 0.5 2.875 C-1.19222773 4.83880904 -1.19222773 4.83880904 -1 7 C-1.99 7 -2.98 7 -4 7 C-4 10.63 -4 14.26 -4 18 C-5.32 17.67 -6.64 17.34 -8 17 C-8.29035556 13.61897078 -8.4386474 10.37177161 -8 7 C-5.625 4.375 -5.625 4.375 -3 3 C-2.34 3 -1.68 3 -1 3 C-0.67 2.01 -0.34 1.02 0 0 Z " fill="#800CFA" transform="translate(199,334)"/>
<path d="M0 0 C3.65135227 1.17364894 5.45988787 3.38846492 7.23828125 6.734375 C8.78355726 11.33058057 8.71962567 16.24139421 8 21 C6.47265625 23.8671875 6.47265625 23.8671875 5 26 C3.81585706 22.44757118 4.30464468 21.30169438 5.4375 17.8125 C5.72496094 16.91144531 6.01242188 16.01039063 6.30859375 15.08203125 C6.53675781 14.39496094 6.76492187 13.70789063 7 13 C6.34 13 5.68 13 5 13 C4.896875 12.236875 4.79375 11.47375 4.6875 10.6875 C4.23930177 7.98440058 4.23930177 7.98440058 2.5 6.5 C0.50098925 4.50098925 0.37109019 2.74606742 0 0 Z " fill="#852FE1" transform="translate(218,333)"/>
<path d="M0 0 C0 2.64 0 5.28 0 8 C-2.35438733 9.42944945 -3.48032433 10.08661261 -6.25 9.625 C-6.8275 9.41875 -7.405 9.2125 -8 9 C-8 8.01 -8 7.02 -8 6 C-10.64 5.67 -13.28 5.34 -16 5 C-16 4.67 -16 4.34 -16 4 C-15.16855469 3.87882812 -14.33710938 3.75765625 -13.48046875 3.6328125 C-12.39378906 3.46523438 -11.30710937 3.29765625 -10.1875 3.125 C-9.10855469 2.96257812 -8.02960938 2.80015625 -6.91796875 2.6328125 C-4.46374221 2.1005706 -2.25288881 0 0 0 Z " fill="#8633E0" transform="translate(411,355)"/>
<path d="M0 0 C2.91226879 1.4561344 3.31842064 3.49960664 4.625 6.4375 C5.07101563 7.42621094 5.51703125 8.41492188 5.9765625 9.43359375 C7 12 7 12 7 14 C3.6875 14.25 3.6875 14.25 0 14 C-1.9375 12.125 -1.9375 12.125 -3 10 C-3 9.34 -3 8.68 -3 8 C-0.525 8.99 -0.525 8.99 2 10 C1.39816251 7.97954558 0.72693904 5.97888961 0 4 C-0.66 3.67 -1.32 3.34 -2 3 C-2 2.34 -2 1.68 -2 1 C-1.34 0.67 -0.68 0.34 0 0 Z " fill="#8D2EE9" transform="translate(177,351)"/>
<path d="M0 0 C2.74054368 3.32486381 4.42376049 6.83057886 6.1875 10.75 C6.71730469 11.92046875 7.24710937 13.0909375 7.79296875 14.296875 C8.19128906 15.18890625 8.58960938 16.0809375 9 17 C8.01 17 7.02 17 6 17 C6 16.01 6 15.02 6 14 C4.68 13.67 3.36 13.34 2 13 C2.99 15.31 3.98 17.62 5 20 C4.34 20.33 3.68 20.66 3 21 C0 14.375 0 14.375 0 11 C0.66 11 1.32 11 2 11 C1.67 9.68 1.34 8.36 1 7 C0.67 7 0.34 7 0 7 C0 4.69 0 2.38 0 0 Z " fill="#8531E4" transform="translate(285,336)"/>
<path d="M0 0 C0.33 0 0.66 0 1 0 C1 2.64 1 5.28 1 8 C-4.75 9.125 -4.75 9.125 -7 8 C-7.33 8.66 -7.66 9.32 -8 10 C-10.6855594 7.3144406 -11.06049974 4.62378672 -12 1 C-10.68 1.33 -9.36 1.66 -8 2 C-8 2.99 -8 3.98 -8 5 C-6.02 5 -4.04 5 -2 5 C-1.34 3.35 -0.68 1.7 0 0 Z " fill="#7D0FF4" transform="translate(299,348)"/>
<path d="M0 0 C0.33 0 0.66 0 1 0 C1.33074549 3.63820044 1.48805542 5.3773086 -0.8125 8.3125 C-4.54218114 11.18968259 -7.6256448 11.11155221 -12.1875 11.0625 C-13.81751953 11.04896484 -13.81751953 11.04896484 -15.48046875 11.03515625 C-16.31191406 11.02355469 -17.14335938 11.01195312 -18 11 C-18 10.67 -18 10.34 -18 10 C-17.37351562 9.93941406 -16.74703125 9.87882812 -16.1015625 9.81640625 C-15.28429687 9.73261719 -14.46703125 9.64882813 -13.625 9.5625 C-12.81289062 9.48128906 -12.00078125 9.40007812 -11.1640625 9.31640625 C-8.95727195 9.10909886 -8.95727195 9.10909886 -7 8 C-10.96 7.67 -14.92 7.34 -19 7 C-19 6.67 -19 6.34 -19 6 C-17.98679687 5.90912109 -17.98679687 5.90912109 -16.953125 5.81640625 C-16.06109375 5.73261719 -15.1690625 5.64882813 -14.25 5.5625 C-13.36828125 5.48128906 -12.4865625 5.40007812 -11.578125 5.31640625 C-9.30649548 5.03761535 -7.20148177 4.61209423 -5 4 C-5 4.99 -5 5.98 -5 7 C-4.01 7 -3.02 7 -2 7 C-1.34 4.69 -0.68 2.38 0 0 Z " fill="#7C27DB" transform="translate(113,342)"/>
<path d="M0 0 C0.66 0 1.32 0 2 0 C2 1.32 2 2.64 2 4 C2.66 4 3.32 4 4 4 C4 6.31 4 8.62 4 11 C1.69 11 -0.62 11 -3 11 C-2.44894091 7.0507432 -1.61064629 3.65079826 0 0 Z " fill="#8631E8" transform="translate(321,354)"/>
<path d="M0 0 C1.95803507 -0.05389087 3.91648909 -0.09274217 5.875 -0.125 C7.51082031 -0.15980469 7.51082031 -0.15980469 9.1796875 -0.1953125 C12 0 12 0 14 2 C9.71 2.66 5.42 3.32 1 4 C0.67 7.63 0.34 11.26 0 15 C-1.98 15 -3.96 15 -6 15 C-6 14.67 -6 14.34 -6 14 C-4.35 14 -2.7 14 -1 14 C-1.01160156 13.24074219 -1.02320312 12.48148437 -1.03515625 11.69921875 C-1.04417969 10.70535156 -1.05320312 9.71148437 -1.0625 8.6875 C-1.07410156 7.70136719 -1.08570312 6.71523438 -1.09765625 5.69921875 C-1 3 -1 3 0 0 Z " fill="#7912EB" transform="translate(94,349)"/>
<path d="M0 0 C5.08991767 3.87244457 9.4185806 8.03046763 12 14 C11.67 14.66 11.34 15.32 11 16 C10.01 15.34 9.02 14.68 8 14 C7.01 14.495 7.01 14.495 6 15 C5.62875 13.3603125 5.62875 13.3603125 5.25 11.6875 C3.90096616 7.70785017 3.17870965 7.33105375 0 5 C-0.25 2.3125 -0.25 2.3125 0 0 Z " fill="#5899F0" transform="translate(348,121)"/>
<path d="M0 0 C-1.53836708 0.65365399 -3.08088766 1.29753603 -4.625 1.9375 C-5.48351562 2.29714844 -6.34203125 2.65679687 -7.2265625 3.02734375 C-13.55577596 5.24702565 -19.75259142 5.12390607 -26.375 5.0625 C-27.30183594 5.05798828 -28.22867188 5.05347656 -29.18359375 5.04882812 C-31.45579709 5.03711574 -33.72786388 5.02071372 -36 5 C-36 4.67 -36 4.34 -36 4 C-34.31583984 3.92652344 -34.31583984 3.92652344 -32.59765625 3.8515625 C-24.13467136 3.44419747 -16.15566386 2.89032197 -8.015625 0.390625 C-3.22386853 -1.07462284 -3.22386853 -1.07462284 0 0 Z " fill="#40E9EF" transform="translate(214,299)"/>
<path d="M0 0 C0.33 0 0.66 0 1 0 C1.02578125 0.84304687 1.0515625 1.68609375 1.078125 2.5546875 C1.13484375 3.65039062 1.1915625 4.74609375 1.25 5.875 C1.29640625 6.96554688 1.3428125 8.05609375 1.390625 9.1796875 C1.68846128 12.1332065 1.68846128 12.1332065 4.046875 13.3828125 C4.69140625 13.58648437 5.3359375 13.79015625 6 14 C5.8125 16.3125 5.8125 16.3125 5 19 C2.4375 20.8125 2.4375 20.8125 0 22 C-1.26798493 17.31315199 -0.91105063 12.96705063 -0.5625 8.1875 C-0.51029297 7.39923828 -0.45808594 6.61097656 -0.40429688 5.79882812 C-0.27540731 3.86548471 -0.13850506 1.93267836 0 0 Z " fill="#6892F7" transform="translate(323,164)"/>
<path d="M0 0 C0 0.33 0 0.66 0 1 C-8.30566989 3.01290353 -16.49174287 3.56891497 -25 4 C-25.66 3.01 -26.32 2.02 -27 1 C-18.02243049 -0.3300103 -9.05168034 -0.08788039 0 0 Z " fill="#6784E5" transform="translate(316,236)"/>
<path d="M0 0 C0.4375 2.125 0.4375 2.125 0 5 C-2.04419305 7.39588217 -4.25802299 9.43818868 -7 11 C-7.99 10.67 -8.98 10.34 -10 10 C-9.34 9.67 -8.68 9.34 -8 9 C-8.33 8.01 -8.66 7.02 -9 6 C-7.68 5.67 -6.36 5.34 -5 5 C-5 3.68 -5 2.36 -5 1 C-3 0 -3 0 0 0 Z " fill="#3B9EF4" transform="translate(345,216)"/>
<path d="M0 0 C-0.99 0.495 -0.99 0.495 -2 1 C-2.33 1.99 -2.66 2.98 -3 4 C-5.64 4 -8.28 4 -11 4 C-11 4.66 -11 5.32 -11 6 C-12.32 5.67 -13.64 5.34 -15 5 C-15 4.01 -15 3.02 -15 2 C-9.92523206 0.73694665 -5.27203646 -0.27036084 0 0 Z " fill="#7D10F5" transform="translate(405,331)"/>
<path d="M0 0 C3.02952396 1.51476198 3.37093771 3.85368016 4.625 6.9375 C5.07101562 8.01902344 5.51703125 9.10054688 5.9765625 10.21484375 C7 13 7 13 7 15 C6.34 15 5.68 15 5 15 C4.67 14.34 4.34 13.68 4 13 C1.98330173 11.86649466 1.98330173 11.86649466 0 11 C0.020625 10.278125 0.04125 9.55625 0.0625 8.8125 C0.08356542 5.99164706 0.08356542 5.99164706 -0.5625 3.25 C-0.706875 2.5075 -0.85125 1.765 -1 1 C-0.67 0.67 -0.34 0.34 0 0 Z " fill="#842FE7" transform="translate(342,342)"/>
<path d="M0 0 C-0.11458693 1.43836751 -0.24209116 2.87570966 -0.375 4.3125 C-0.44460937 5.11300781 -0.51421875 5.91351563 -0.5859375 6.73828125 C-1 9 -1 9 -3 12 C-3.99 12 -4.98 12 -6 12 C-5.9129995 10.37399059 -5.8048219 8.74910322 -5.6875 7.125 C-5.62949219 6.22007812 -5.57148437 5.31515625 -5.51171875 4.3828125 C-4.81887225 1.15658073 -3.34638587 0 0 0 Z " fill="#8112F6" transform="translate(114,337)"/>
<path d="M0 0 C2.31 0 4.62 0 7 0 C9.31 4.95 11.62 9.9 14 15 C13.01 15.495 13.01 15.495 12 16 C12 15.34 12 14.68 12 14 C11.34 14 10.68 14 10 14 C8.68 10.37 7.36 6.74 6 3 C4.02 3.33 2.04 3.66 0 4 C0 2.68 0 1.36 0 0 Z " fill="#843DDB" transform="translate(233,331)"/>
<path d="M0 0 C0.33 1.32 0.66 2.64 1 4 C1.99 4 2.98 4 4 4 C4.33 4.66 4.66 5.32 5 6 C5.66 6.33 6.32 6.66 7 7 C6.67 8.32 6.34 9.64 6 11 C4.35 11 2.7 11 1 11 C1 10.01 1 9.02 1 8 C0.34 8 -0.32 8 -1 8 C-0.67 5.36 -0.34 2.72 0 0 Z " fill="#7E0EF5" transform="translate(248,351)"/>
<path d="M0 0 C-0.020625 1.051875 -0.04125 2.10375 -0.0625 3.1875 C-0.01103198 6.32704904 0.26517187 8.96883396 1 12 C-0.32 12 -1.64 12 -3 12 C-4.125 4.375 -4.125 4.375 -3 1 C-1 0 -1 0 0 0 Z " fill="#7E0EF6" transform="translate(446,351)"/>
<path d="M0 0 C2.31 0 4.62 0 7 0 C7.66 1.65 8.32 3.3 9 5 C8.01 4.67 7.02 4.34 6 4 C6 3.34 6 2.68 6 2 C4.68 2 3.36 2 2 2 C0.26337666 5.22515763 -0.8905928 8.51329166 -2 12 C-2.66 11.67 -3.32 11.34 -4 11 C-3.52269162 9.5410574 -3.04308958 8.08286504 -2.5625 6.625 C-2.29566406 5.81289063 -2.02882813 5.00078125 -1.75390625 4.1640625 C-1 2 -1 2 0 0 Z " fill="#863ADF" transform="translate(331,331)"/>
<path d="M0 0 C3.125 -0.1875 3.125 -0.1875 6 0 C5.67 0.99 5.34 1.98 5 3 C4.01 3 3.02 3 2 3 C1.67 4.65 1.34 6.3 1 8 C-0.65 8.33 -2.3 8.66 -4 9 C-2.94124926 5.59687262 -1.99097846 2.98646769 0 0 Z " fill="#8532E6" transform="translate(262,331)"/>
<path d="M0 0 C0.99 0.495 0.99 0.495 2 1 C2.57850689 3.12601281 3.06471008 5.27761033 3.5 7.4375 C4.28575928 12.22292876 4.28575928 12.22292876 7 16 C7.8563027 18.63233792 8.38929927 21.29546818 9 24 C8.34 24.33 7.68 24.66 7 25 C6.01038434 22.33681412 5.03323149 19.67006693 4.0625 17 C3.78470703 16.25621094 3.50691406 15.51242188 3.22070312 14.74609375 C1.43408764 9.79523157 0.47085001 5.24491149 0 0 Z " fill="#40ECF1" transform="translate(173,120)"/>
<path d="M0 0 C8.87421022 -0.62033314 8.87421022 -0.62033314 13.0625 1.6875 C15.1742292 4.20795098 15.72960418 5.75525016 16 9 C15.236875 8.195625 14.47375 7.39125 13.6875 6.5625 C10.20279897 3.23987809 7.94222456 2.87040254 3.3125 2.9375 C2.50425781 2.94652344 1.69601563 2.95554687 0.86328125 2.96484375 C0.24839844 2.97644531 -0.36648437 2.98804688 -1 3 C-0.67 2.01 -0.34 1.02 0 0 Z " fill="#8231DE" transform="translate(203,335)"/>
<path d="M0 0 C8.25 0 16.5 0 25 0 C25 2.31 25 4.62 25 7 C24.01 7.33 23.02 7.66 22 8 C22 6.35 22 4.7 22 3 C22.66 3 23.32 3 24 3 C24 2.34 24 1.68 24 1 C16.08 1 8.16 1 0 1 C0 0.67 0 0.34 0 0 Z " fill="#17DBFD" transform="translate(210,136)"/>
<path d="M0 0 C0.99 0.66 1.98 1.32 3 2 C2.34 3.32 1.68 4.64 1 6 C0.34 6 -0.32 6 -1 6 C-1 8.31 -1 10.62 -1 13 C-1.99 12.67 -2.98 12.34 -4 12 C-4 9.69 -4 7.38 -4 5 C-3.34 5 -2.68 5 -2 5 C-2 4.01 -2 3.02 -2 2 C-1.34 2 -0.68 2 0 2 C0 1.34 0 0.68 0 0 Z " fill="#8B33EA" transform="translate(110,333)"/>
<path d="M0 0 C0.99 0.33 1.98 0.66 3 1 C3 2.65 3 4.3 3 6 C4.32 6 5.64 6 7 6 C7 4.02 7 2.04 7 0 C8.9451 2.91765 9.45276317 4.62537285 10 8 C7.69 8 5.38 8 3 8 C0 2.25 0 2.25 0 0 Z " fill="#8D49DC" transform="translate(342,357)"/>
<path d="M0 0 C0.6640625 1.71875 0.6640625 1.71875 1 4 C-1.47762069 9.29055847 -5.16049181 13.72621505 -10 17 C-10 16.01 -10 15.02 -10 14 C-8.82482273 12.85839922 -7.6459078 11.72030725 -6.4453125 10.60546875 C-3.65305623 7.5038003 -1.89162371 3.69470334 0 0 Z " fill="#27BEFE" transform="translate(319,188)"/>
<path d="M0 0 C2.125 0.375 2.125 0.375 4 1 C3.67 2.98 3.34 4.96 3 7 C3.99 7.33 4.98 7.66 6 8 C6 9.98 6 11.96 6 14 C3.33333333 10 0.66666667 6 -2 2 C-1.34 1.34 -0.68 0.68 0 0 Z " fill="#6D81EF" transform="translate(316,144)"/>
<path d="M0 0 C2.97 0 5.94 0 9 0 C8.01 0.66 7.02 1.32 6 2 C5.27617533 4.05925139 5.27617533 4.05925139 5 6 C5.99 6 6.98 6 8 6 C8 6.99 8 7.98 8 9 C6.68 8.67 5.36 8.34 4 8 C3.67 6.35 3.34 4.7 3 3 C2.01 2.67 1.02 2.34 0 2 C0 1.34 0 0.68 0 0 Z " fill="#7416F4" transform="translate(176,104)"/>
<path d="M0 0 C1.10844919 3.32534757 0.84454356 5.62182575 0 9 C2.97 9.495 2.97 9.495 6 10 C3.34262343 12.18284504 1.34430737 13.27633685 -2 14 C-2.3690205 4.58997722 -2.3690205 4.58997722 0 0 Z " fill="#6C4DE7" transform="translate(226,233)"/>
<path d="M0 0 C0.33 0.66 0.66 1.32 1 2 C2.299375 1.6596875 2.299375 1.6596875 3.625 1.3125 C7.68338409 0.9367237 9.55166676 1.94742069 13 4 C13 4.66 13 5.32 13 6 C10.36 6 7.72 6 5 6 C4.67 5.34 4.34 4.68 4 4 C1.97536745 3.34786708 1.97536745 3.34786708 0 3 C0 2.01 0 1.02 0 0 Z " fill="#7E10FB" transform="translate(192,127)"/>
<path d="M0 0 C0.66 0.33 1.32 0.66 2 1 C1.84660156 1.66386719 1.69320313 2.32773437 1.53515625 3.01171875 C0.89226979 6.60155922 0.64966009 10.17795419 0.4375 13.8125 C0.39431641 14.50537109 0.35113281 15.19824219 0.30664062 15.91210938 C0.20138547 17.60788686 0.10027137 19.30392052 0 21 C-1.65 21 -3.3 21 -5 21 C-3.68 20.67 -2.36 20.34 -1 20 C-1.01160156 18.72382813 -1.02320313 17.44765625 -1.03515625 16.1328125 C-1.04453417 14.46354313 -1.05363437 12.79427217 -1.0625 11.125 C-1.07087891 10.28324219 -1.07925781 9.44148438 -1.08789062 8.57421875 C-1.09111328 7.76855469 -1.09433594 6.96289062 -1.09765625 6.1328125 C-1.10289307 5.38918457 -1.10812988 4.64555664 -1.11352539 3.87939453 C-1 2 -1 2 0 0 Z " fill="#7D1EE1" transform="translate(282,343)"/>
<path d="M0 0 C0.66 0 1.32 0 2 0 C1.125 5.75 1.125 5.75 0 8 C2.97 8 5.94 8 9 8 C9 8.66 9 9.32 9 10 C5.37 10 1.74 10 -2 10 C-2 8.02 -2 6.04 -2 4 C-1.34 4 -0.68 4 0 4 C0 2.68 0 1.36 0 0 Z " fill="#9D56E9" transform="translate(331,342)"/>
<path d="M0 0 C6.6 0 13.2 0 20 0 C20 0.33 20 0.66 20 1 C15.05 1 10.1 1 5 1 C5.99 1.99 6.98 2.98 8 4 C7.67 4.66 7.34 5.32 7 6 C5.83054208 5.19152271 4.66449539 4.37810888 3.5 3.5625 C2.8503125 3.11003906 2.200625 2.65757813 1.53125 2.19140625 C1.0259375 1.79824219 0.520625 1.40507813 0 1 C0 0.67 0 0.34 0 0 Z " fill="#6534DA" transform="translate(171,103)"/>
<path d="M0 0 C0.33 0 0.66 0 1 0 C1.18175781 0.90492188 1.18175781 0.90492188 1.3671875 1.828125 C1.53476562 2.62734375 1.70234375 3.4265625 1.875 4.25 C2.03742188 5.03890625 2.19984375 5.8278125 2.3671875 6.640625 C2.92021559 9.02612111 2.92021559 9.02612111 4.09375 11.15625 C5 13 5 13 4.625 15.25 C4.41875 15.8275 4.2125 16.405 4 17 C0.75101933 12.90345916 -0.13007859 10.01605176 -0.0625 4.8125 C-0.05347656 3.91144531 -0.04445313 3.01039063 -0.03515625 2.08203125 C-0.02355469 1.39496094 -0.01195312 0.70789063 0 0 Z " fill="#873AE0" transform="translate(380,343)"/>
<path d="M0 0 C0.99 0 1.98 0 3 0 C3.33 2.31 3.66 4.62 4 7 C2.35 7 0.7 7 -1 7 C-1.04254356 5.00045254 -1.04080783 2.99958364 -1 1 C-0.67 0.67 -0.34 0.34 0 0 Z " fill="#437DFA" transform="translate(345,121)"/>
<path d="M0 0 C1.98 0.66 3.96 1.32 6 2 C6 4.31 6 6.62 6 9 C4.02 8.34 2.04 7.68 0 7 C1.32 6.67 2.64 6.34 4 6 C3.67 5.01 3.34 4.02 3 3 C1.35 2.67 -0.3 2.34 -2 2 C-1.34 1.34 -0.68 0.68 0 0 Z " fill="#813CD9" transform="translate(405,331)"/>
<path d="M0 0 C0.99 0.33 1.98 0.66 3 1 C2.64950425 4.24208567 2.43778819 5.61527704 -0.0625 7.8125 C-0.701875 8.204375 -1.34125 8.59625 -2 9 C-1.125 2.25 -1.125 2.25 0 0 Z " fill="#50ABF2" transform="translate(347,212)"/>
<path d="M0 0 C0.66 0 1.32 0 2 0 C1.75 1.875 1.75 1.875 1 4 C0.401875 4.28875 -0.19625 4.5775 -0.8125 4.875 C-3.9488077 6.48795825 -5.10458995 9.09370459 -7 12 C-7.66 12 -8.32 12 -9 12 C-7.32598022 8.04322598 -4.86850715 5.15535787 -2 2 C-1.34 2 -0.68 2 0 2 C0 1.34 0 0.68 0 0 Z " fill="#47E8F3" transform="translate(194,203)"/>
<path d="M0 0 C1.66611905 -0.042721 3.33382885 -0.04063832 5 0 C5.33 0.33 5.66 0.66 6 1 C8.69235776 1.23678716 11.36498156 1.42198025 14.0625 1.5625 C15.20041992 1.62727539 15.20041992 1.62727539 16.36132812 1.69335938 C18.24065438 1.79973633 20.12030244 1.90039934 22 2 C22 2.33 22 2.66 22 3 C18.89601022 3.08710289 15.79233452 3.14042309 12.6875 3.1875 C11.80642578 3.21263672 10.92535156 3.23777344 10.01757812 3.26367188 C8.74624023 3.27817383 8.74624023 3.27817383 7.44921875 3.29296875 C6.66893311 3.3086792 5.88864746 3.32438965 5.0847168 3.34057617 C2.50096147 2.91847304 1.63707833 1.98510058 0 0 Z " fill="#3ACFEE" transform="translate(214,169)"/>
<path d="M0 0 C-1.05875074 3.40312738 -2.00902154 6.01353231 -4 9 C-5.32 9 -6.64 9 -8 9 C-8 8.34 -8 7.68 -8 7 C-7.01 7 -6.02 7 -5 7 C-5 5.68 -5 4.36 -5 3 C-2.64285714 0 -2.64285714 0 0 0 Z " fill="#883DE3" transform="translate(300,356)"/>
<path d="M0 0 C0.66 0 1.32 0 2 0 C1.125 6.75 1.125 6.75 0 9 C-1.32 8.67 -2.64 8.34 -4 8 C-4 7.34 -4 6.68 -4 6 C-3.34 5.67 -2.68 5.34 -2 5 C-1.27840576 3.35636866 -0.60648579 1.68949614 0 0 Z " fill="#800CF8" transform="translate(387,335)"/>
<path d="M0 0 C3.63 0 7.26 0 11 0 C8.40098042 1.73267972 6.86157884 2.48482049 3.9375 3.25 C2.89916016 3.53617188 2.89916016 3.53617188 1.83984375 3.828125 C1.23269531 3.88484375 0.62554687 3.9415625 0 4 C-0.66 3.34 -1.32 2.68 -2 2 C-1.34 2 -0.68 2 0 2 C0 1.34 0 0.68 0 0 Z " fill="#7B48E5" transform="translate(233,239)"/>
<path d="M0 0 C0 1.98 0 3.96 0 6 C-1.65 5.67 -3.3 5.34 -5 5 C-5 3.68 -5 2.36 -5 1 C-3 0 -3 0 0 0 Z " fill="#2F9DF9" transform="translate(365,154)"/>
<path d="M0 0 C-1 2 -1 2 -3.4375 2.9375 C-6.29863959 3.84547289 -6.29863959 3.84547289 -8 7 C-8.99 6.67 -9.98 6.34 -11 6 C-11 5.01 -11 4.02 -11 3 C-9.73160474 2.49384702 -8.46016898 1.99530901 -7.1875 1.5 C-6.12595703 1.08234375 -6.12595703 1.08234375 -5.04296875 0.65625 C-3 0 -3 0 0 0 Z " fill="#692DF9" transform="translate(249,217)"/>
<path d="M0 0 C2.10544013 0.28232721 4.20933589 0.5761898 6.3125 0.875 C7.48425781 1.03742188 8.65601563 1.19984375 9.86328125 1.3671875 C13 2 13 2 16 4 C10.36718401 4.2396943 5.45461169 3.38529821 0 2 C0 1.34 0 0.68 0 0 Z " fill="#7A6DE8" transform="translate(303,101)"/>
<path d="M0 0 C0.66 0 1.32 0 2 0 C2 0.66 2 1.32 2 2 C2.66 2 3.32 2 4 2 C4 2.99 4 3.98 4 5 C5.65 5 7.3 5 9 5 C8.67 5.99 8.34 6.98 8 8 C5.6875 7.9375 5.6875 7.9375 3 7 C1.1875 3.4375 1.1875 3.4375 0 0 Z " fill="#904AE1" transform="translate(245,357)"/>
<path d="M0 0 C0.66 1.32 1.32 2.64 2 4 C-3.94 4.495 -3.94 4.495 -10 5 C-10 4.67 -10 4.34 -10 4 C-8.35 4 -6.7 4 -5 4 C-4.67 3.01 -4.34 2.02 -4 1 C-1.9375 0.3125 -1.9375 0.3125 0 0 Z " fill="#4D65FB" transform="translate(293,233)"/>
<path d="M0 0 C0.66 0.33 1.32 0.66 2 1 C2.390625 6.95703125 2.390625 6.95703125 2 9 C0.68 9.99 -0.64 10.98 -2 12 C-1.34 8.04 -0.68 4.08 0 0 Z " fill="#7F2ADF" transform="translate(219,344)"/>
<path d="M0 0 C-2.71472902 2.71472902 -5.30652069 3.14258516 -9 4 C-9.66 3.67 -10.32 3.34 -11 3 C-11 2.34 -11 1.68 -11 1 C-7.32589215 -0.17571451 -3.83070817 -0.07366746 0 0 Z " fill="#5061FD" transform="translate(299,213)"/>
<path d="M0 0 C0.99 0 1.98 0 3 0 C3 1.98 3 3.96 3 6 C1.68 6 0.36 6 -1 6 C-1.042721 4.33388095 -1.04063832 2.66617115 -1 1 C-0.67 0.67 -0.34 0.34 0 0 Z " fill="#7910F4" transform="translate(346,357)"/>
<path d="M0 0 C2.15377564 2.62198774 3.40072174 4.64404172 4 8 C1.69 8 -0.62 8 -3 8 C-3.33 7.34 -3.66 6.68 -4 6 C-1.525 6.495 -1.525 6.495 1 7 C0.67 4.69 0.34 2.38 0 0 Z " fill="#9656DB" transform="translate(180,357)"/>
<path d="M0 0 C-0.33 0.99 -0.66 1.98 -1 3 C-4.3 3 -7.6 3 -11 3 C-7.88866897 -0.11133103 -4.26881718 0 0 0 Z " fill="#4B85F1" transform="translate(320,233)"/>
<path d="M0 0 C0.99 0 1.98 0 3 0 C3 2.31 3 4.62 3 7 C2.01 7.33 1.02 7.66 0 8 C0 5.36 0 2.72 0 0 Z " fill="#4475FA" transform="translate(325,160)"/>
<path d="M0 0 C0.33 0 0.66 0 1 0 C1.08121924 1.60332791 1.13929134 3.20784026 1.1875 4.8125 C1.23970703 6.15248047 1.23970703 6.15248047 1.29296875 7.51953125 C0.95081002 10.41647515 0.24606427 11.22555028 -2 13 C-2 11.02 -2 9.04 -2 7 C-1.34 7 -0.68 7 0 7 C0 4.69 0 2.38 0 0 Z " fill="#9449E4" transform="translate(183,337)"/>
<path d="M0 0 C2.64465038 3.1254959 3.84414715 6.08788267 5 10 C3 10 3 10 1.375 8.9375 C-0.68369484 6.03661182 -0.19557733 3.45519943 0 0 Z " fill="#8D3DE3" transform="translate(285,336)"/>
<path d="M0 0 C2.64 1.98 5.28 3.96 8 6 C7.67 6.66 7.34 7.32 7 8 C4.0625 6.8125 4.0625 6.8125 1 5 C0.125 2.3125 0.125 2.3125 0 0 Z " fill="#32B8FC" transform="translate(172,104)"/>
<path d="M0 0 C1.32 0 2.64 0 4 0 C4 1.65 4 3.3 4 5 C2.68 5 1.36 5 0 5 C0 3.35 0 1.7 0 0 Z " fill="#7F21F0" transform="translate(177,346)"/>
<path d="M0 0 C-0.33 0.99 -0.66 1.98 -1 3 C-3.31 3 -5.62 3 -8 3 C-7.34 2.67 -6.68 2.34 -6 2 C-6 1.34 -6 0.68 -6 0 C-3.50907189 -1.24546405 -2.58919267 -0.7767578 0 0 Z " fill="#4277FC" transform="translate(309,234)"/>
<path d="M0 0 C3.9492568 0.55105909 7.34920174 1.38935371 11 3 C11 3.33 11 3.66 11 4 C7.06225823 4.36630156 5.43460229 4.30233203 2.125 2 C1.42375 1.34 0.7225 0.68 0 0 Z " fill="#747DE8" transform="translate(319,105)"/>
<path d="M0 0 C0.66 0.99 1.32 1.98 2 3 C3.32381517 4.67423683 4.65576661 6.34211215 6 8 C3.69 7.67 1.38 7.34 -1 7 C-0.67 4.69 -0.34 2.38 0 0 Z " fill="#8632E4" transform="translate(387,350)"/>
<path d="M0 0 C1.98 0.99 1.98 0.99 4 2 C4 2.99 4 3.98 4 5 C3.34 5 2.68 5 2 5 C2 5.66 2 6.32 2 7 C1.34 7 0.68 7 0 7 C0 4.69 0 2.38 0 0 Z " fill="#8309F9" transform="translate(179,339)"/>
<path d="M0 0 C-2.64 1.65 -5.28 3.3 -8 5 C-8.33 4.01 -8.66 3.02 -9 2 C-4.5 -1.125 -4.5 -1.125 0 0 Z " fill="#26CDFE" transform="translate(242,218)"/>
<path d="M0 0 C0.33 0 0.66 0 1 0 C1 1.98 1 3.96 1 6 C-0.98 6.33 -2.96 6.66 -5 7 C-4.19152271 5.83054208 -3.37810888 4.66449539 -2.5625 3.5 C-2.11003906 2.8503125 -1.65757812 2.200625 -1.19140625 1.53125 C-0.79824219 1.0259375 -0.40507812 0.520625 0 0 Z " fill="#4178FA" transform="translate(317,198)"/>
<path d="M0 0 C6.52307692 0.61538462 6.52307692 0.61538462 8.9375 2.5625 C9.288125 3.036875 9.63875 3.51125 10 4 C7.25 4.25 7.25 4.25 4 4 C1.625 2 1.625 2 0 0 Z " fill="#5B2DEE" transform="translate(192,130)"/>
<path d="M0 0 C2.5 1.8125 2.5 1.8125 5 4 C5 4.99 5 5.98 5 7 C3.35 6.67 1.7 6.34 0 6 C0 4.02 0 2.04 0 0 Z " fill="#5386EB" transform="translate(348,121)"/>
<path d="M0 0 C0.99 0 1.98 0 3 0 C2.34 2.97 1.68 5.94 1 9 C0.67 9 0.34 9 0 9 C0 6.03 0 3.06 0 0 Z " fill="#62B6ED" transform="translate(360,192)"/>
<path d="M0 0 C-0.33 1.32 -0.66 2.64 -1 4 C-2.32 4.33 -3.64 4.66 -5 5 C-4.625 3.0625 -4.625 3.0625 -4 1 C-2 0 -2 0 0 0 Z " fill="#830AF9" transform="translate(219,357)"/>
<path d="M0 0 C2 3 2 3 2 7 C1.01 7 0.02 7 -1 7 C-1.04254356 5.00045254 -1.04080783 2.99958364 -1 1 C-0.67 0.67 -0.34 0.34 0 0 Z " fill="#8408FB" transform="translate(383,345)"/>
<path d="M0 0 C2.31 0 4.62 0 7 0 C7.66 1.65 8.32 3.3 9 5 C8.01 4.67 7.02 4.34 6 4 C6 3.01 6 2.02 6 1 C4.02 1.33 2.04 1.66 0 2 C0 1.34 0 0.68 0 0 Z " fill="#9A5CE5" transform="translate(331,331)"/>
<path d="M0 0 C0.66 0.99 1.32 1.98 2 3 C1.67 3.66 1.34 4.32 1 5 C-0.32 4.67 -1.64 4.34 -3 4 C-3 3.01 -3 2.02 -3 1 C-2.01 0.67 -1.02 0.34 0 0 Z " fill="#14D1FB" transform="translate(307,200)"/>
<path d="" fill="#FFFFFF" transform="translate(0,0)"/>
<path d="" fill="#FFFFFF" transform="translate(0,0)"/>
<path d="" fill="#FFFFFF" transform="translate(0,0)"/>
<path d="" fill="#FFFFFF" transform="translate(0,0)"/>
<path d="" fill="#FFFFFF" transform="translate(0,0)"/>
<path d="" fill="#FFFFFF" transform="translate(0,0)"/>
<path d="" fill="#FFFFFF" transform="translate(0,0)"/>
<path d="" fill="#FFFFFF" transform="translate(0,0)"/>
<path d="" fill="#FFFFFF" transform="translate(0,0)"/>
<path d="" fill="#FFFFFF" transform="translate(0,0)"/>
<path d="" fill="#FFFFFF" transform="translate(0,0)"/>
<path d="" fill="#FFFFFF" transform="translate(0,0)"/>
<path d="" fill="#FFFFFF" transform="translate(0,0)"/>
<path d="" fill="#FFFFFF" transform="translate(0,0)"/>
<path d="" fill="#FFFFFF" transform="translate(0,0)"/>
<path d="" fill="#FFFFFF" transform="translate(0,0)"/>
<path d="" fill="#FFFFFF" transform="translate(0,0)"/>
<path d="" fill="#FFFFFF" transform="translate(0,0)"/>
<path d="" fill="#FFFFFF" transform="translate(0,0)"/>
<path d="" fill="#FFFFFF" transform="translate(0,0)"/>
<path d="" fill="#FFFFFF" transform="translate(0,0)"/>
<path d="" fill="#FFFFFF" transform="translate(0,0)"/>
<path d="" fill="#FFFFFF" transform="translate(0,0)"/>
<path d="" fill="#FFFFFF" transform="translate(0,0)"/>
<path d="" fill="#FFFFFF" transform="translate(0,0)"/>
<path d="" fill="#FFFFFF" transform="translate(0,0)"/>
<path d="" fill="#FFFFFF" transform="translate(0,0)"/>
<path d="" fill="#FFFFFF" transform="translate(0,0)"/>
<path d="" fill="#FFFFFF" transform="translate(0,0)"/>
<path d="" fill="#FFFFFF" transform="translate(0,0)"/>
<path d="" fill="#FFFFFF" transform="translate(0,0)"/>
<path d="" fill="#FFFFFF" transform="translate(0,0)"/>
<path d="" fill="#FFFFFF" transform="translate(0,0)"/>
<path d="" fill="#FFFFFF" transform="translate(0,0)"/>
<path d="" fill="#FFFFFF" transform="translate(0,0)"/>
<path d="" fill="#FFFFFF" transform="translate(0,0)"/>
<path d="" fill="#FFFFFF" transform="translate(0,0)"/>
<path d="" fill="#FFFFFF" transform="translate(0,0)"/>
<path d="" fill="#FFFFFF" transform="translate(0,0)"/>
<path d="" fill="#FFFFFF" transform="translate(0,0)"/>
<path d="" fill="#FFFFFF" transform="translate(0,0)"/>
<path d="" fill="#FFFFFF" transform="translate(0,0)"/>
<path d="" fill="#FFFFFF" transform="translate(0,0)"/>
<path d="" fill="#FFFFFF" transform="translate(0,0)"/>
<path d="" fill="#FFFFFF" transform="translate(0,0)"/>
<path d="" fill="#FFFFFF" transform="translate(0,0)"/>
<path d="" fill="#FFFFFF" transform="translate(0,0)"/>
<path d="" fill="#FFFFFF" transform="translate(0,0)"/>
<path d="" fill="#FFFFFF" transform="translate(0,0)"/>
<path d="" fill="#FFFFFF" transform="translate(0,0)"/>
<path d="" fill="#FFFFFF" transform="translate(0,0)"/>
<path d="" fill="#FFFFFF" transform="translate(0,0)"/>
<path d="" fill="#FFFFFF" transform="translate(0,0)"/>
<path d="" fill="#FFFFFF" transform="translate(0,0)"/>
<path d="" fill="#FFFFFF" transform="translate(0,0)"/>
<path d="" fill="#FFFFFF" transform="translate(0,0)"/>
<path d="" fill="#FFFFFF" transform="translate(0,0)"/>
<path d="" fill="#FFFFFF" transform="translate(0,0)"/>
<path d="" fill="#FFFFFF" transform="translate(0,0)"/>
<path d="" fill="#FFFFFF" transform="translate(0,0)"/>
<path d="" fill="#FFFFFF" transform="translate(0,0)"/>
<path d="" fill="#FFFFFF" transform="translate(0,0)"/>
<path d="" fill="#FFFFFF" transform="translate(0,0)"/>
<path d="" fill="#FFFFFF" transform="translate(0,0)"/>
<path d="" fill="#FFFFFF" transform="translate(0,0)"/>
<path d="" fill="#FFFFFF" transform="translate(0,0)"/>
<path d="" fill="#FFFFFF" transform="translate(0,0)"/>
<path d="" fill="#FFFFFF" transform="translate(0,0)"/>
<path d="" fill="#FFFFFF" transform="translate(0,0)"/>
<path d="" fill="#FFFFFF" transform="translate(0,0)"/>
<path d="" fill="#FFFFFF" transform="translate(0,0)"/>
<path d="" fill="#FFFFFF" transform="translate(0,0)"/>
<path d="" fill="#FFFFFF" transform="translate(0,0)"/>
<path d="" fill="#FFFFFF" transform="translate(0,0)"/>
<path d="" fill="#FFFFFF" transform="translate(0,0)"/>
<path d="" fill="#FFFFFF" transform="translate(0,0)"/>
<path d="" fill="#FFFFFF" transform="translate(0,0)"/>
<path d="" fill="#FFFFFF" transform="translate(0,0)"/>
<path d="" fill="#FFFFFF" transform="translate(0,0)"/>
<path d="" fill="#FFFFFF" transform="translate(0,0)"/>
<path d="" fill="#FFFFFF" transform="translate(0,0)"/>
<path d="" fill="#FFFFFF" transform="translate(0,0)"/>
<path d="" fill="#FFFFFF" transform="translate(0,0)"/>
<path d="" fill="#FFFFFF" transform="translate(0,0)"/>
<path d="" fill="#FFFFFF" transform="translate(0,0)"/>
<path d="" fill="#FFFFFF" transform="translate(0,0)"/>
<path d="" fill="#FFFFFF" transform="translate(0,0)"/>
<path d="" fill="#FFFFFF" transform="translate(0,0)"/>
<path d="" fill="#FFFFFF" transform="translate(0,0)"/>
</svg>
